<svg id="Camada_1" data-name="Camada 1" xmlns="http://www.w3.org/2000/svg" viewBox="0 0 42.52 42.52"><defs><style>.cls-1{fill:#fff;}</style></defs><title>icon</title><path class="cls-1" d="M35.23,7.27H23.72V5.16H18.8V7.27H7.29a4.13,4.13,0,0,0-4.12,4.12V29.81a4.13,4.13,0,0,0,4.12,4.12H24a.5.5,0,0,0,0-1H7.29a3.12,3.12,0,0,1-3.12-3.12V12H38.35V29.81a3.12,3.12,0,0,1-3.12,3.12h-4.6a.5.5,0,0,0,0,1h4.6a4.13,4.13,0,0,0,4.12-4.12V11.39A4.13,4.13,0,0,0,35.23,7.27ZM19.8,6.16h2.92V7.27H19.8ZM4.21,11A3.12,3.12,0,0,1,7.29,8.27H7.4V11ZM8.4,11V8.27h2.73V11Zm3.73,0V8.27h2.72V11Zm14.54,0H15.85V8.27H26.67Zm3.72,0H27.67V8.27h2.72Zm3.73,0H31.39V8.27h2.73Zm1,0V8.27h.11A3.12,3.12,0,0,1,38.31,11Z"/><polygon class="cls-1" points="11.34 14.37 7.4 14.37 7.4 18.31 8.4 18.31 8.4 15.37 11.34 15.37 11.34 14.37"/><polygon class="cls-1" points="31.18 30.19 35.12 30.19 35.12 26.25 34.12 26.25 34.12 29.19 31.18 29.19 31.18 30.19"/><polygon class="cls-1" points="35.12 18.31 35.12 14.37 31.18 14.37 31.18 15.37 34.12 15.37 34.12 18.31 35.12 18.31"/><polygon class="cls-1" points="7.4 26.25 7.4 30.19 11.34 30.19 11.34 29.19 8.4 29.19 8.4 26.25 7.4 26.25"/><path class="cls-1" d="M22.94,20.18a1.68,1.68,0,0,0-.2-.29,1.24,1.24,0,0,0-.09-.33l-.89-.81-.2-.22v0l-.31-.28a2.7,2.7,0,0,0-.54-.77.8.8,0,0,0-1.44.67,2.49,2.49,0,0,0,.23.9v.41l0,0,0,.2v1.09l0,.21a1.6,1.6,0,0,0,.19.29,3.18,3.18,0,0,0,.09.33l8.63,18.77a1.7,1.7,0,0,0,1.3,1,1.57,1.57,0,0,0,.95-.14A1.69,1.69,0,0,0,31.56,39Zm-2.36.55h0l-.07-.08V19l1.26,1.09a.36.36,0,0,1,0,.11h0a.7.7,0,0,1-.39.74h0A.73.73,0,0,1,20.58,20.73ZM21.11,22a1.69,1.69,0,0,0,.7-.15,1.82,1.82,0,0,0,.58-.44L23.14,23a2.29,2.29,0,0,1-1.27.58ZM30.67,39.9a.75.75,0,0,1-.36.4.7.7,0,0,1-.93-.35L22.31,24.56A3.34,3.34,0,0,0,23.58,24l7.07,15.39A.69.69,0,0,1,30.67,39.9Z"/></svg>