<?xml version="1.0" encoding="utf-8"?>
<!-- Generator: Adobe Illustrator 23.0.1, SVG Export Plug-In . SVG Version: 6.00 Build 0)  -->
<svg version="1.1" id="Camada_1" xmlns="http://www.w3.org/2000/svg" xmlns:xlink="http://www.w3.org/1999/xlink" x="0px" y="0px"
	 viewBox="0 0 130.92 38.36" style="enable-background:new 0 0 130.92 38.36;" xml:space="preserve">
<style type="text/css">
	.st0{fill:#FFFFFF;}
</style>
<g>
	<g>
		<path class="st0" d="M1.79,1.67h2.47c2.19,0,5.01,0.27,5.01,3.65V6.1c0,1.72-1.06,2.9-2.15,3.16v0.08
			c1.59,0.29,2.41,1.57,2.41,3.49v0.82c0,3.5-2.44,4.12-5.18,4.12H1.79V1.67z M4.66,8.56c1.31,0,2.19-0.59,2.19-2.1V5.8
			c0-1.5-0.57-2.35-2.19-2.35H4.18v5.11H4.66z M4.88,16.06c1.3,0,2.18-0.68,2.18-2.19v-1.25c0-1.51-0.57-2.35-2.18-2.35h-0.7v5.78
			H4.88z"/>
		<path class="st0" d="M11.65,1.67h2.65c1.82,0,4.88,0.23,4.88,4.6v0.41c0,2.44-0.72,3.97-2.08,4.65l2.58,6.43H17.1l-2.14-6.02
			h-0.91v6.02h-2.39V1.67z M14.41,9.98c1.71,0,2.32-0.7,2.32-2.86V5.84c0-1.66-0.54-2.39-2.32-2.39h-0.37v6.53H14.41z"/>
		<path class="st0" d="M21.46,1.67h2.46v11.79c0,2,0.4,2.6,1.36,2.6c0.96,0,1.42-0.6,1.42-2.6V1.67h2.43v11.14
			c0,4.73-2.45,5.09-3.85,5.09c-1.39,0-3.81-0.36-3.81-5.09V1.67z"/>
		<path class="st0" d="M31.82,1.67h1.98l3.9,10.77h0.06c-0.08-1-0.25-2.4-0.25-4.9V1.67h2.19v16.09h-2L33.81,7.27h-0.08
			c0.08,1.14,0.25,2.5,0.25,5.76v4.73h-2.17V1.67z"/>
		<path class="st0" d="M41.99,12.52v-5.7c0-4.85,2.5-5.29,4-5.29c1.45,0,3.97,0.37,3.97,5.29v5.7c0,4.78-2.56,5.38-3.97,5.38
			C44.43,17.9,41.99,17.35,41.99,12.52z M47.42,13.47V6.15c0-2.06-0.46-2.7-1.42-2.7c-0.99,0-1.45,0.64-1.45,2.7v7.32
			c0,2,0.46,2.59,1.45,2.59C46.96,16.06,47.42,15.47,47.42,13.47z"/>
		<path class="st0" d="M56.39,1.67h6.15v1.92h-3.71v4.81h2.91v1.92h-2.91v7.43h-2.44V1.67z"/>
		<path class="st0" d="M63.73,12.52v-5.7c0-4.85,2.5-5.29,4-5.29c1.45,0,3.97,0.37,3.97,5.29v5.7c0,4.78-2.56,5.38-3.97,5.38
			C66.17,17.9,63.73,17.35,63.73,12.52z M69.15,13.47V6.15c0-2.06-0.46-2.7-1.42-2.7c-0.99,0-1.45,0.64-1.45,2.7v7.32
			c0,2,0.46,2.59,1.45,2.59C68.69,16.06,69.15,15.47,69.15,13.47z"/>
		<path class="st0" d="M74,1.67h2.65c1.82,0,4.88,0.23,4.88,4.6v0.41c0,2.44-0.73,3.97-2.08,4.65l2.58,6.43h-2.58l-2.14-6.02h-0.91
			v6.02H74V1.67z M76.76,9.98c1.72,0,2.32-0.7,2.32-2.86V5.84c0-1.66-0.54-2.39-2.32-2.39h-0.37v6.53H76.76z"/>
		<path class="st0" d="M83.87,1.67h3.18L88.6,7.9c0.33,1.38,0.49,2.65,0.66,3.74h0.08c0.17-1.09,0.33-2.36,0.66-3.74l1.59-6.23h3.12
			v16.09h-2.28v-5.32c0-3.27,0.15-6.12,0.25-7.25H92.5l-2.43,10.5h-1.54l-2.45-10.5H85.9c0.1,1.13,0.25,3.98,0.25,7.25v5.32h-2.28
			V1.67z"/>
		<path class="st0" d="M99.22,1.67h2.81l2.98,16.09h-2.47l-0.44-2.88h-2.94l-0.42,2.88h-2.48L99.22,1.67z M101.81,13.04l-1.13-8.02
			h-0.1l-1.14,8.02H101.81z"/>
		<path class="st0" d="M106.21,12.52v-5.7c0-4.85,2.59-5.29,4.13-5.29c2.61,0,3.53,1.54,3.53,3.41c0,0.69-0.09,1.22-0.23,1.92h-1.95
			V6.1c0-1.76-0.49-2.65-1.42-2.65c-1.03,0-1.51,0.64-1.51,2.7v7.29c0,2,0.46,2.61,1.49,2.61c1.08,0,1.54-1.2,1.54-2.74v-2.1h-1.25
			v-1.6h3.63v8.15h-1.62l-0.26-1.53c-0.61,1.2-1.38,1.68-2.48,1.68C108.67,17.91,106.21,17.35,106.21,12.52z"/>
		<path class="st0" d="M116.42,1.67h2.44v16.09h-2.44V1.67z"/>
		<path class="st0" d="M121.16,12.52v-5.7c0-4.85,2.5-5.29,4-5.29c1.45,0,3.97,0.37,3.97,5.29v5.7c0,4.78-2.56,5.38-3.97,5.38
			C123.6,17.9,121.16,17.35,121.16,12.52z M126.59,13.47V6.15c0-2.06-0.46-2.7-1.42-2.7c-0.99,0-1.45,0.64-1.45,2.7v7.32
			c0,2,0.46,2.59,1.45,2.59C126.13,16.06,126.59,15.47,126.59,13.47z"/>
	</g>
	<g>
		<g>
			<path class="st0" d="M7.66,33.33c-0.02,0.06-0.06,0.07-0.11,0.06l-0.22-0.06c-0.04-0.01-0.06-0.04-0.04-0.1
				c0.01-0.06,0.04-0.12,0.04-0.21c0-0.14-0.09-0.23-0.2-0.23c-0.11,0-0.32,0.07-0.54,0.17c-0.27,0.14-1.11,0.35-1.71,0.35
				c-1.65,0-2.97-1.14-2.97-2.94c0-1.41,0.66-3.06,1.79-4.29c0.8-0.88,1.92-1.42,2.98-1.42c0.59,0,1.04,0.12,1.63,0.53
				c0.16,0.11,0.38,0.35,0.62,0.35c0.15,0,0.25-0.1,0.32-0.38c0.02-0.07,0.06-0.1,0.11-0.07l0.16,0.04c0.07,0.01,0.1,0.05,0.07,0.12
				l-0.66,2.56c-0.02,0.07-0.05,0.1-0.14,0.07l-0.17-0.02c-0.06-0.01-0.09-0.04-0.07-0.12c0.26-1.21-0.37-2.62-1.79-2.62
				c-1,0-1.67,0.5-2.37,1.51c-0.93,1.36-1.23,2.89-1.23,3.88c0,1.77,1.18,2.31,1.89,2.31c1.04,0,2.33-0.36,3.08-2.19
				c0.05-0.11,0.06-0.12,0.12-0.1l0.21,0.06c0.07,0.02,0.07,0.05,0.06,0.11L7.66,33.33z"/>
			<path class="st0" d="M9.53,31.65c0-1.56,1.17-3.67,2.82-3.67c0.83,0,1.32,0.61,1.32,1.45c0,1.36-1.08,3.82-2.87,3.82
				C10.12,33.24,9.53,32.59,9.53,31.65z M13.17,29.23c0.01-0.38-0.21-0.69-0.62-0.69c-0.52,0-1.18,0.47-1.79,1.47
				c-0.42,0.67-0.72,1.42-0.72,2c0,0.4,0.27,0.63,0.57,0.63C11.9,32.65,13.17,30.05,13.17,29.23z"/>
			<path class="st0" d="M14.68,33.12c-0.14,0-0.16-0.02-0.14-0.11l0.88-2.29c0.3-0.77,0.64-1.66,0.64-1.87
				c0-0.12-0.05-0.21-0.19-0.21c-0.23,0-0.83,0.59-1.04,0.83c-0.04,0.04-0.07,0.04-0.12-0.01l-0.11-0.11
				c-0.05-0.05-0.06-0.07-0.02-0.12c0.19-0.22,1.1-1.25,1.99-1.25c0.28,0,0.4,0.21,0.4,0.37c0,0.38-0.53,1.56-0.63,1.84l0.05,0.02
				c0.37-0.59,1.72-2.24,2.82-2.24c0.37,0,0.62,0.19,0.62,0.51c0,0.54-0.29,1.19-0.69,2.19c-0.33,0.82-0.63,1.51-0.63,1.71
				c0,0.07,0.05,0.16,0.15,0.16c0.19,0,0.73-0.46,0.89-0.63c0.05-0.04,0.1-0.02,0.14,0.02l0.09,0.1c0.05,0.05,0.06,0.07,0.01,0.14
				c-0.15,0.2-1.15,1.08-1.98,1.08c-0.16,0-0.3-0.06-0.3-0.25c0-0.24,0.45-1.21,0.83-2.28c0.17-0.48,0.62-1.51,0.62-1.78
				c0-0.17-0.09-0.28-0.31-0.28c-0.48,0-1.71,1.14-2.25,2.02c-0.22,0.36-0.42,0.68-0.74,1.55l-0.31,0.83
				c-0.02,0.05-0.05,0.07-0.17,0.07H14.68z"/>
			<path class="st0" d="M20.74,32.1c0-1.68,1.37-4.13,2.81-4.13c0.58,0,0.71,0.47,0.71,0.69c0,0.3-0.28,0.52-0.51,0.52
				c-0.16,0-0.27-0.09-0.32-0.27c-0.04-0.14-0.19-0.32-0.38-0.32c-0.31,0-0.63,0.3-0.9,0.85c-0.33,0.72-0.53,1.78-0.53,2.16
				c0,0.9,0.27,1.03,0.5,1.03c0.48,0,0.95-0.5,1.09-0.67c0.04-0.05,0.07-0.07,0.11-0.05l0.14,0.12c0.04,0.02,0.06,0.06,0.01,0.14
				c-0.17,0.26-0.99,1.06-1.78,1.06C21.24,33.24,20.74,32.93,20.74,32.1z"/>
			<path class="st0" d="M24.49,32.03c0-1.04,0.68-2.34,1.58-3.23c0.4-0.4,1.06-0.83,1.66-0.83c0.48,0,0.71,0.36,0.71,0.66
				c0,0.61-0.46,1.25-1.15,1.61c-0.67,0.33-1.34,0.47-1.79,0.51c-0.06,0.15-0.16,0.56-0.16,1.14c0,0.56,0.41,0.78,0.64,0.78
				c0.61,0,1.15-0.46,1.41-0.88c0.02-0.04,0.06-0.06,0.11-0.01l0.14,0.11c0.06,0.04,0.06,0.07,0.01,0.11
				c-0.31,0.43-1.05,1.25-2,1.25C24.83,33.24,24.49,32.85,24.49,32.03z M25.59,30.38c0.43,0.04,2.05-0.48,2.05-1.4
				c0-0.25-0.12-0.47-0.4-0.47C26.45,28.52,25.69,29.94,25.59,30.38z"/>
			<path class="st0" d="M31.22,27.03c0.04-0.1,0.07-0.14,0.16-0.17l0.77-0.27c0.02-0.01,0.06-0.01,0.09-0.01
				c0.02,0,0.04,0.02,0.04,0.05c0,0.02,0,0.06-0.02,0.1l-0.57,1.29c0.07-0.01,0.16-0.02,0.25-0.02c0.09-0.01,0.19-0.01,0.25-0.01
				c1.18,0,1.71,0.84,1.71,1.65c0,0.87-0.38,1.76-1.47,2.57c-0.54,0.4-1.56,0.82-2.57,0.93l-0.88,2.45
				c-0.22,0.67-0.12,0.84,0.4,0.84h0.35c0.06,0,0.1,0.06,0.09,0.1l-0.09,0.25c-0.02,0.04-0.05,0.07-0.15,0.07
				c-0.14,0-0.51-0.04-1.3-0.04c-0.85,0-1.19,0.04-1.32,0.04c-0.07,0-0.1-0.02-0.09-0.07l0.07-0.25c0.01-0.05,0.02-0.1,0.09-0.1
				h0.28c0.48,0,0.68-0.28,0.94-1l2.42-6.67c-0.61,0.17-1.27,0.79-1.53,1.11c-0.04,0.05-0.09,0.04-0.11,0.01l-0.14-0.12
				c-0.04-0.04-0.05-0.07-0.01-0.11c0.43-0.52,1.01-1.09,1.97-1.45L31.22,27.03z M29.98,32.75c1.48-0.23,3.03-1.32,3.03-2.85
				c0-0.95-0.57-1.42-1.11-1.42c-0.19,0-0.31,0.02-0.4,0.04L29.98,32.75z"/>
			<path class="st0" d="M36.17,28.76h-0.87c-0.07,0-0.1-0.02-0.07-0.1l0.1-0.27c0.02-0.06,0.06-0.09,0.14-0.09h0.89L37,26.87
				c0.06-0.12,0.1-0.15,0.2-0.19c0.14-0.04,0.46-0.16,0.56-0.21c0.07-0.04,0.14-0.07,0.19-0.07c0.07,0,0.1,0.07,0.01,0.25
				l-0.82,1.66h1.26c0.06,0,0.09,0.04,0.05,0.14l-0.11,0.26c-0.01,0.04-0.06,0.06-0.11,0.06h-1.26l-1.2,2.78
				c-0.15,0.35-0.28,0.66-0.28,0.79c0,0.14,0.05,0.21,0.16,0.21c0.36,0,1.16-0.71,1.24-0.79c0.04-0.05,0.07-0.04,0.11,0l0.14,0.15
				c0.04,0.04,0.04,0.06,0.01,0.11c-0.16,0.2-1.31,1.22-2.26,1.22c-0.31,0-0.4-0.12-0.4-0.3c0-0.19,0.06-0.4,0.14-0.58L36.17,28.76z
				"/>
			<path class="st0" d="M46.32,27.97c0.05,0,0.06,0.06,0.04,0.11c-0.23,0.51-0.87,2.21-0.93,2.41c-0.07,0.21-0.59,1.74-0.59,1.86
				c0,0.11,0.06,0.15,0.14,0.15c0.15,0,0.78-0.64,0.87-0.75c0.04-0.04,0.07-0.06,0.1-0.02l0.11,0.12c0.04,0.04,0.05,0.06,0.02,0.1
				c-0.14,0.25-1.21,1.3-1.92,1.3c-0.15,0-0.26-0.05-0.26-0.21c0-0.19,0.12-0.57,0.59-1.88l-0.06-0.02
				c-0.52,0.79-1.77,2.11-2.65,2.11c-0.29,0-0.67-0.23-0.67-0.79c0-1.81,2.03-4.48,3.54-4.48c0.52,0,0.75,0.22,0.88,0.42l0.23-0.33
				c0.04-0.05,0.07-0.09,0.12-0.09H46.32z M44.76,30.12c0.17-0.36,0.3-0.67,0.3-1.03c0-0.33-0.12-0.73-0.58-0.73
				c-1.14,0-2.46,2.61-2.46,3.79c0,0.28,0.12,0.43,0.33,0.43C42.96,32.59,44.53,30.58,44.76,30.12z"/>
			<path class="st0" d="M47.14,33.12c-0.09,0-0.14-0.05-0.11-0.11l0.69-2c0.22-0.69,0.61-1.99,0.61-2.16c0-0.11-0.1-0.19-0.21-0.19
				c-0.25,0-0.8,0.56-0.98,0.77c-0.02,0.04-0.07,0.02-0.1,0l-0.12-0.12c-0.02-0.02-0.02-0.06,0-0.1c0.26-0.38,1-1.22,1.84-1.22
				c0.25,0,0.35,0.21,0.35,0.43c0.01,0.24-0.2,0.93-0.45,1.76l0.06,0.02c0.33-0.69,1.32-2.21,2.02-2.21c0.36,0,0.58,0.22,0.58,0.56
				c0,0.32-0.25,0.57-0.48,0.57c-0.11,0-0.21-0.02-0.31-0.12c-0.1-0.1-0.16-0.15-0.32-0.15c-0.33,0-1.03,1.06-1.52,1.88
				c-0.15,0.23-0.3,0.52-0.48,1.08l-0.41,1.25c-0.02,0.09-0.06,0.09-0.16,0.09H47.14z"/>
			<path class="st0" d="M53.03,28.76h-0.87c-0.07,0-0.1-0.02-0.07-0.1l0.1-0.27c0.02-0.06,0.06-0.09,0.14-0.09h0.89l0.64-1.44
				c0.06-0.12,0.1-0.15,0.2-0.19c0.14-0.04,0.46-0.16,0.56-0.21c0.07-0.04,0.14-0.07,0.19-0.07c0.07,0,0.1,0.07,0.01,0.25
				l-0.82,1.66h1.26c0.06,0,0.09,0.04,0.05,0.14l-0.11,0.26c-0.01,0.04-0.06,0.06-0.11,0.06h-1.26l-1.2,2.78
				c-0.15,0.35-0.28,0.66-0.28,0.79c0,0.14,0.05,0.21,0.16,0.21c0.36,0,1.16-0.71,1.24-0.79c0.04-0.05,0.07-0.04,0.11,0l0.14,0.15
				c0.04,0.04,0.04,0.06,0.01,0.11c-0.16,0.2-1.31,1.22-2.26,1.22c-0.31,0-0.4-0.12-0.4-0.3c0-0.19,0.06-0.4,0.14-0.58L53.03,28.76z
				"/>
			<path class="st0" d="M55.62,32.93c0-0.28,0.21-0.85,0.73-2.24l0.36-0.96c0.12-0.33,0.22-0.58,0.22-0.73
				c0-0.11-0.07-0.16-0.17-0.16c-0.21,0-0.79,0.67-0.99,0.87c-0.05,0.05-0.1,0.05-0.14,0.01l-0.1-0.11
				c-0.05-0.04-0.07-0.06-0.04-0.11c0.05-0.07,1.31-1.56,2.1-1.52c0.15,0,0.3,0.1,0.3,0.31c0,0.22-0.2,0.78-0.42,1.37l-0.72,1.88
				c-0.17,0.46-0.22,0.73-0.22,0.82c0,0.11,0.04,0.19,0.14,0.21c0.26-0.05,0.93-0.75,0.99-0.87c0.02-0.04,0.07-0.04,0.14,0.02
				l0.1,0.09c0.05,0.06,0.06,0.09,0.02,0.15c-0.07,0.1-1.06,1.29-2.09,1.29C55.71,33.23,55.62,33.13,55.62,32.93z M57.18,25.72
				c0-0.33,0.26-0.62,0.64-0.62c0.43,0,0.66,0.31,0.66,0.59c0,0.19-0.15,0.62-0.66,0.62C57.28,26.31,57.18,25.86,57.18,25.72z"/>
			<path class="st0" d="M58.39,32.55c0-0.17,0.16-0.41,0.42-0.41c0.27,0,0.43,0.19,0.51,0.4c0.07,0.21,0.14,0.35,0.45,0.35
				c0.36,0,0.69-0.32,0.69-0.75c0-0.53-0.37-1.04-0.53-1.44c-0.09-0.21-0.37-0.64-0.36-1.21c0-0.72,0.68-1.51,1.56-1.51
				c0.37,0,0.88,0.15,0.88,0.63c0,0.22-0.2,0.4-0.38,0.4c-0.15,0-0.33-0.09-0.42-0.3c-0.06-0.15-0.07-0.35-0.32-0.35
				s-0.61,0.33-0.61,0.78c0,0.46,0.37,0.98,0.44,1.15c0.07,0.15,0.47,0.75,0.47,1.41c0,0.96-0.78,1.55-1.63,1.55
				C58.84,33.24,58.39,32.96,58.39,32.55z"/>
			<path class="st0" d="M64.09,28.76h-0.87c-0.07,0-0.1-0.02-0.07-0.1l0.1-0.27c0.02-0.06,0.06-0.09,0.14-0.09h0.89l0.64-1.44
				c0.06-0.12,0.1-0.15,0.2-0.19c0.14-0.04,0.46-0.16,0.56-0.21c0.07-0.04,0.14-0.07,0.19-0.07c0.07,0,0.1,0.07,0.01,0.25
				l-0.82,1.66h1.26c0.06,0,0.09,0.04,0.05,0.14l-0.11,0.26c-0.01,0.04-0.06,0.06-0.11,0.06h-1.26l-1.2,2.78
				c-0.15,0.35-0.28,0.66-0.28,0.79c0,0.14,0.05,0.21,0.16,0.21c0.36,0,1.16-0.71,1.24-0.79c0.04-0.05,0.07-0.04,0.11,0l0.14,0.15
				c0.04,0.04,0.04,0.06,0.01,0.11c-0.16,0.2-1.31,1.22-2.26,1.22c-0.31,0-0.4-0.12-0.4-0.3c0-0.19,0.06-0.4,0.14-0.58L64.09,28.76z
				"/>
			<path class="st0" d="M69.85,30.2c0-1.48,0.93-2.31,1.44-2.54c-0.32-0.43-0.46-0.92-0.46-1.47c0-0.92,0.71-1.78,1.86-1.78
				c0.68,0,1.2,0.37,1.2,0.98c0,0.53-0.43,0.82-0.58,0.82c-0.05,0-0.06-0.09-0.04-0.22c0.1-0.52-0.32-0.84-0.74-0.84
				c-0.67,0-1.19,0.58-1.19,1.42c0,0.35,0.11,0.71,0.31,0.98c0.11-0.04,0.25-0.06,0.43-0.06c0.22,0,0.63,0.11,0.63,0.3
				c0,0.3-0.16,0.58-0.36,0.58s-0.59-0.16-0.69-0.25c-0.16-0.14-0.21-0.16-0.37-0.06c-0.42,0.27-0.72,0.92-0.72,1.67
				c0,1.52,1.34,2.75,3.62,2.75c2.26,0,3.46-1.47,3.46-2.65c0-0.98-0.75-1.93-1.84-1.93c-0.98,0-1.16,0.89-1.16,1.14
				c0,0.57,0.29,0.89,0.4,0.89c0.06,0,0.11-0.07,0.11-0.19c0-0.15,0.15-0.49,0.53-0.49c0.36,0,0.58,0.26,0.58,0.63
				c0,0.21-0.2,0.61-0.75,0.61c-0.48,0-1.31-0.48-1.31-1.52c0-0.83,0.59-1.76,1.89-1.76c0.47,0,1.1,0.09,1.32,0.09
				c1.34,0,1.98-0.4,1.98-1.09c0-0.45-0.37-0.87-0.7-0.87c-0.16,0-0.16,0.16-0.14,0.27c0.02,0.16-0.1,0.52-0.51,0.52
				c-0.41,0-0.53-0.28-0.53-0.44c0-0.52,0.48-0.77,0.94-0.77c0.84,0,1.42,0.64,1.42,1.3c0,1.15-0.77,1.72-2.02,1.88
				c-0.28,0.04-0.31,0.12-0.17,0.33c0.16,0.25,0.45,0.74,0.45,1.61c0,2.1-1.86,3.36-3.98,3.36C70.7,33.39,69.85,31.46,69.85,30.2z"
				/>
			<path class="st0" d="M82.92,32.93c0-0.28,0.21-0.85,0.73-2.24L84,29.73c0.12-0.33,0.22-0.58,0.22-0.73
				c0-0.11-0.07-0.16-0.17-0.16c-0.21,0-0.79,0.67-0.99,0.87c-0.05,0.05-0.1,0.05-0.14,0.01l-0.1-0.11
				c-0.05-0.04-0.07-0.06-0.04-0.11c0.05-0.07,1.31-1.56,2.1-1.52c0.15,0,0.3,0.1,0.3,0.31c0,0.22-0.2,0.78-0.42,1.37l-0.72,1.88
				c-0.17,0.46-0.22,0.73-0.22,0.82c0,0.11,0.04,0.19,0.14,0.21c0.26-0.05,0.93-0.75,0.99-0.87c0.02-0.04,0.07-0.04,0.14,0.02
				l0.1,0.09c0.05,0.06,0.06,0.09,0.02,0.15c-0.07,0.1-1.06,1.29-2.09,1.29C83,33.23,82.92,33.13,82.92,32.93z M84.47,25.72
				c0-0.33,0.26-0.62,0.64-0.62c0.43,0,0.66,0.31,0.66,0.59c0,0.19-0.15,0.62-0.66,0.62C84.57,26.31,84.47,25.86,84.47,25.72z"/>
			<path class="st0" d="M88.59,25.97c0.19-0.47,0.17-0.78-0.19-0.78h-0.36c-0.09,0-0.1-0.05-0.07-0.11l0.07-0.22
				c0.02-0.07,0.05-0.09,0.12-0.09h1.53c0.11,0,0.15,0.07,0.11,0.19l-2.57,6.54c-0.11,0.28-0.41,0.96-0.15,0.96
				c0.2,0,0.77-0.48,0.92-0.64c0.05-0.05,0.07-0.04,0.11,0l0.14,0.15c0.02,0.02,0.04,0.07-0.01,0.12c-0.06,0.1-1.21,1.15-2,1.15
				c-0.16,0-0.27-0.07-0.27-0.36c0-0.19,0.31-0.96,0.46-1.34L88.59,25.97z"/>
			<path class="st0" d="M91.73,25.97c0.19-0.47,0.17-0.78-0.19-0.78h-0.36c-0.09,0-0.1-0.05-0.07-0.11l0.07-0.22
				c0.02-0.07,0.05-0.09,0.12-0.09h1.53c0.11,0,0.15,0.07,0.11,0.19l-2.57,6.54c-0.11,0.28-0.41,0.96-0.15,0.96
				c0.2,0,0.77-0.48,0.92-0.64c0.05-0.05,0.07-0.04,0.11,0l0.14,0.15c0.02,0.02,0.04,0.07-0.01,0.12c-0.06,0.1-1.21,1.15-2,1.15
				c-0.16,0-0.27-0.07-0.27-0.36c0-0.19,0.31-0.96,0.46-1.34L91.73,25.97z"/>
			<path class="st0" d="M97.69,28.1c0.11,0,0.14,0.04,0.11,0.11l-0.95,2.57c-0.36,0.96-0.52,1.53-0.52,1.61
				c0,0.11,0.01,0.11,0.1,0.15c0.19,0,0.87-0.62,0.96-0.77c0.02-0.04,0.07-0.05,0.11,0l0.12,0.12c0.04,0.04,0.04,0.06,0,0.11
				c-0.04,0.05-1.19,1.24-2.04,1.24c-0.17,0-0.23-0.14-0.23-0.28c0-0.15,0.63-1.69,0.79-2.11l-0.07-0.04
				c-0.52,0.75-1.83,2.44-3.06,2.44c-0.25,0-0.44-0.21-0.46-0.51c0.01-0.4,0.4-1.16,0.88-2.31c0.32-0.77,0.61-1.35,0.61-1.57
				c0-0.11-0.09-0.17-0.2-0.17c-0.22,0-0.84,0.56-0.96,0.71c-0.04,0.04-0.07,0.04-0.11,0l-0.11-0.11c-0.04-0.02-0.04-0.06,0.01-0.11
				c0.09-0.11,1.11-1.19,1.91-1.19c0.25,0,0.36,0.25,0.36,0.45c0,0.31-0.3,1.04-0.8,2.14c-0.33,0.73-0.66,1.52-0.66,1.79
				c0,0.14,0.09,0.21,0.21,0.21c0.66,0,1.97-1.62,2.33-2.14c0.24-0.35,0.43-0.68,0.57-1.05l0.43-1.19c0.02-0.07,0.09-0.09,0.17-0.09
				H97.69z"/>
			<path class="st0" d="M97.95,32.55c0-0.17,0.16-0.41,0.42-0.41c0.27,0,0.43,0.19,0.51,0.4c0.07,0.21,0.14,0.35,0.45,0.35
				c0.36,0,0.69-0.32,0.69-0.75c0-0.53-0.37-1.04-0.53-1.44c-0.09-0.21-0.37-0.64-0.36-1.21c0-0.72,0.68-1.51,1.56-1.51
				c0.37,0,0.88,0.15,0.88,0.63c0,0.22-0.2,0.4-0.38,0.4c-0.15,0-0.33-0.09-0.42-0.3c-0.06-0.15-0.07-0.35-0.32-0.35
				s-0.61,0.33-0.61,0.78c0,0.46,0.37,0.98,0.45,1.15c0.07,0.15,0.47,0.75,0.47,1.41c0,0.96-0.78,1.55-1.63,1.55
				C98.4,33.24,97.95,32.96,97.95,32.55z"/>
			<path class="st0" d="M103.65,28.76h-0.87c-0.07,0-0.1-0.02-0.07-0.1l0.1-0.27c0.02-0.06,0.06-0.09,0.14-0.09h0.89l0.64-1.44
				c0.06-0.12,0.1-0.15,0.2-0.19c0.14-0.04,0.46-0.16,0.56-0.21c0.07-0.04,0.14-0.07,0.19-0.07c0.07,0,0.1,0.07,0.01,0.25
				l-0.82,1.66h1.26c0.06,0,0.09,0.04,0.05,0.14l-0.11,0.26c-0.01,0.04-0.06,0.06-0.11,0.06h-1.26l-1.2,2.78
				c-0.15,0.35-0.28,0.66-0.28,0.79c0,0.14,0.05,0.21,0.16,0.21c0.36,0,1.16-0.71,1.24-0.79c0.04-0.05,0.07-0.04,0.11,0l0.14,0.15
				c0.04,0.04,0.04,0.06,0.01,0.11c-0.16,0.2-1.31,1.22-2.26,1.22c-0.31,0-0.4-0.12-0.4-0.3c0-0.19,0.06-0.4,0.14-0.58L103.65,28.76
				z"/>
			<path class="st0" d="M106.34,33.12c-0.09,0-0.14-0.05-0.11-0.11l0.69-2c0.22-0.69,0.61-1.99,0.61-2.16c0-0.11-0.1-0.19-0.21-0.19
				c-0.25,0-0.8,0.56-0.98,0.77c-0.02,0.04-0.07,0.02-0.1,0l-0.12-0.12c-0.02-0.02-0.02-0.06,0-0.1c0.26-0.38,1-1.22,1.84-1.22
				c0.25,0,0.35,0.21,0.35,0.43c0.01,0.24-0.2,0.93-0.45,1.76l0.06,0.02c0.33-0.69,1.32-2.21,2.02-2.21c0.36,0,0.58,0.22,0.58,0.56
				c0,0.32-0.25,0.57-0.48,0.57c-0.11,0-0.21-0.02-0.31-0.12c-0.1-0.1-0.16-0.15-0.32-0.15c-0.33,0-1.03,1.06-1.52,1.88
				c-0.15,0.23-0.3,0.52-0.48,1.08l-0.41,1.25c-0.02,0.09-0.06,0.09-0.16,0.09H106.34z"/>
			<path class="st0" d="M115.29,27.97c0.05,0,0.06,0.06,0.04,0.11c-0.23,0.51-0.87,2.21-0.93,2.41c-0.07,0.21-0.59,1.74-0.59,1.86
				c0,0.11,0.06,0.15,0.14,0.15c0.15,0,0.78-0.64,0.87-0.75c0.04-0.04,0.07-0.06,0.1-0.02l0.11,0.12c0.04,0.04,0.05,0.06,0.02,0.1
				c-0.14,0.25-1.21,1.3-1.92,1.3c-0.15,0-0.26-0.05-0.26-0.21c0-0.19,0.12-0.57,0.59-1.88l-0.06-0.02
				c-0.52,0.79-1.77,2.11-2.65,2.11c-0.28,0-0.67-0.23-0.67-0.79c0-1.81,2.03-4.48,3.54-4.48c0.52,0,0.75,0.22,0.88,0.42l0.23-0.33
				c0.04-0.05,0.07-0.09,0.12-0.09H115.29z M113.73,30.12c0.17-0.36,0.3-0.67,0.3-1.03c0-0.33-0.12-0.73-0.58-0.73
				c-1.14,0-2.46,2.61-2.46,3.79c0,0.28,0.12,0.43,0.33,0.43C111.94,32.59,113.51,30.58,113.73,30.12z"/>
			<path class="st0" d="M117.5,28.76h-0.87c-0.07,0-0.1-0.02-0.07-0.1l0.1-0.27c0.02-0.06,0.06-0.09,0.14-0.09h0.89l0.64-1.44
				c0.06-0.12,0.1-0.15,0.2-0.19c0.14-0.04,0.46-0.16,0.56-0.21c0.07-0.04,0.14-0.07,0.19-0.07c0.07,0,0.1,0.07,0.01,0.25
				l-0.82,1.66h1.26c0.06,0,0.09,0.04,0.05,0.14l-0.11,0.26c-0.01,0.04-0.06,0.06-0.11,0.06h-1.26l-1.2,2.78
				c-0.15,0.35-0.28,0.66-0.28,0.79c0,0.14,0.05,0.21,0.16,0.21c0.36,0,1.16-0.71,1.24-0.79c0.04-0.05,0.07-0.04,0.11,0l0.14,0.15
				c0.04,0.04,0.04,0.06,0.01,0.11c-0.16,0.2-1.31,1.22-2.26,1.22c-0.31,0-0.4-0.12-0.4-0.3c0-0.19,0.06-0.4,0.14-0.58L117.5,28.76z
				"/>
			<path class="st0" d="M119.63,31.65c0-1.56,1.17-3.67,2.82-3.67c0.83,0,1.32,0.61,1.32,1.45c0,1.36-1.08,3.82-2.87,3.82
				C120.22,33.24,119.63,32.59,119.63,31.65z M123.28,29.23c0.01-0.38-0.21-0.69-0.62-0.69c-0.52,0-1.18,0.47-1.79,1.47
				c-0.42,0.67-0.72,1.42-0.72,2c0,0.4,0.27,0.63,0.57,0.63C122,32.65,123.28,30.05,123.28,29.23z"/>
			<path class="st0" d="M124.72,33.12c-0.09,0-0.14-0.05-0.11-0.11l0.69-2c0.22-0.69,0.61-1.99,0.61-2.16c0-0.11-0.1-0.19-0.21-0.19
				c-0.25,0-0.8,0.56-0.98,0.77c-0.02,0.04-0.07,0.02-0.1,0l-0.12-0.12c-0.02-0.02-0.02-0.06,0-0.1c0.26-0.38,1-1.22,1.84-1.22
				c0.25,0,0.35,0.21,0.35,0.43c0.01,0.24-0.2,0.93-0.45,1.76l0.06,0.02c0.33-0.69,1.32-2.21,2.02-2.21c0.36,0,0.58,0.22,0.58,0.56
				c0,0.32-0.25,0.57-0.48,0.57c-0.11,0-0.21-0.02-0.31-0.12c-0.1-0.1-0.16-0.15-0.32-0.15c-0.33,0-1.03,1.06-1.52,1.88
				c-0.15,0.23-0.3,0.52-0.48,1.08l-0.41,1.25c-0.02,0.09-0.06,0.09-0.16,0.09H124.72z"/>
		</g>
	</g>
</g>
</svg>
