<?xml version="1.0" encoding="utf-8"?>
<!-- Generator: Adobe Illustrator 27.0.0, SVG Export Plug-In . SVG Version: 6.00 Build 0)  -->
<svg version="1.1" id="Layer_1" xmlns="http://www.w3.org/2000/svg" xmlns:xlink="http://www.w3.org/1999/xlink" x="0px" y="0px"
	 viewBox="0 0 277.8 389" style="enable-background:new 0 0 277.8 389;" xml:space="preserve">
<style type="text/css">
	.st0{fill:#FFFFFF;}
</style>
<g>
	<g>
		<path class="st0" d="M137.1,301l0.2,0.3C137.3,301.1,137.2,301,137.1,301z"/>
	</g>
	<g>
		<path class="st0" d="M133.4,346.5C133.4,346.5,133.3,346.5,133.4,346.5c-0.1,0.2-0.1,0.6-0.2,1.2L133.4,346.5z"/>
	</g>
	<g>
		<path class="st0" d="M138.1,276.2c-0.2-0.1-0.2-0.3-0.3-0.5C137.7,276,137.8,276.2,138.1,276.2z"/>
	</g>
	<g>
		<path class="st0" d="M124.7,355.5l0.6-0.5C125,355,124.7,355.2,124.7,355.5z"/>
	</g>
	<g>
		<path class="st0" d="M129.4,366c0-0.1-0.2-0.3-0.3-0.5C129.2,365.8,129.2,366,129.4,366z"/>
	</g>
	<g>
		<path class="st0" d="M137.1,19.7c0-0.5-0.4-0.9-0.8-1.4L137.1,19.7z"/>
	</g>
	<g>
		<path class="st0" d="M123.1,346.3c-0.6-0.5,0.1-1.5-0.4-1.5C122.7,345.3,122.3,346.1,123.1,346.3z"/>
	</g>
	<g>
		<path class="st0" d="M131.9,19.5c0.1,0,0.2-0.1,0.3-0.1c-0.1-0.1-0.1-0.2-0.1-0.3L131.9,19.5z"/>
	</g>
	<g>
		<path class="st0" d="M140.6,128C140.6,128,140.6,128,140.6,128c0,0.1,0.1,0.1,0.1,0.1L140.6,128z"/>
	</g>
	<g>
		<path class="st0" d="M141.5,125c0.1,0.2,0.1,0.4,0.2,0.7C141.8,125.3,141.7,125.1,141.5,125z"/>
	</g>
	<g>
		<path class="st0" d="M137.7,278.5c0,0.1-0.1,0.2-0.1,0.3C137.7,278.8,137.8,278.8,137.7,278.5z"/>
	</g>
	<g>
		<path class="st0" d="M122.4,255.9L122.4,255.9C122.4,255.9,122.4,255.9,122.4,255.9C122.4,255.9,122.4,255.9,122.4,255.9z"/>
	</g>
	<g>
		<path class="st0" d="M123.1,257.1c0.1-0.4-0.3-0.9-0.7-1.2C122.4,256.3,122.5,256.7,123.1,257.1z"/>
	</g>
	<g>
		<path class="st0" d="M121.5,277.6C121.5,277.6,121.6,277.6,121.5,277.6C121.6,277.6,121.6,277.6,121.5,277.6L121.5,277.6z"/>
	</g>
	<g>
		<path class="st0" d="M121.1,241.3C121.1,241.3,121.1,241.3,121.1,241.3C121.1,241.3,121.1,241.3,121.1,241.3
			C121.1,241.3,121.1,241.3,121.1,241.3z"/>
	</g>
	<g>
		<path class="st0" d="M134.9,18.5c-0.3-0.9,1.1-1.4,0.3-1.5c-0.5,1.3-2-0.4-3,0.8l-0.2-0.8c-0.6-0.2,0.6,1.1-0.4,0.9l1.4,0.2
			c-0.2,0.6-0.5,1-1,1.2c0.6,0.6,2.5,1,1.7,2.4l-0.1-0.4c0,1.2-0.9,0.7-1.2,1l0-0.3l-0.7,1c0.5-0.8-0.7-2-0.6-1.3
			c-0.4,1.4,0.3-0.4,0.5,0.7c0.1,0.7-0.7,0.5-1.1,0.4l0,1.2c-0.7,0,0-0.8-0.7-0.3l0.7,1.5c-1.7,0.3,0.8,1.6-0.8,2.3
			c-0.4-1.1-0.6,0.1-1.1-0.1l0.1,2.6c-0.2,0.2-0.5-0.7-0.4-0.3c-0.5,0.5,0.4,0.8,0.4,1.1c-0.5,0.2,0,1.9-1.1,1.9
			c-0.8,1.8,1.4,0.7,0.8,2.4c-0.7,0.2-0.2-1.3-0.9-0.6l0.2,1.7c-0.3-0.2-1.1-0.3-1-1c-0.9,4.6-4.5,7.1-3.6,11.3
			c-0.8,0.6-0.5-0.4-1.1-0.8c1.1,3.1-1.8,4.3-1.7,6.9l0.7,0c-2.1,3.6-0.8,8-1.7,12.1l0.5-0.5c0.6,0.6,0.7,1.5,1,2.1
			c-0.3,0.1-1.4-0.5-1.2,0.7c0.2-0.2,0.5-0.8,0.8-0.6c-1.7,3.5-1.3,10.9-2.2,16.7c0.5,7.8-0.8,16.3-0.4,23.9c0-1.2,1.6-0.7,1.2,0.2
			c-2.8,2.4,0.5,4.2-1.4,6.6c0.9,4.5-1.5,8.5,0.6,12.6l-0.8,0.1c-0.4,0.6,0.2,0.8,0.3,1.4l-0.2,0c-0.3,1.5,0.5,3.4,0.1,4.3l0.9,0.1
			c0.1,0.9-0.7,0.5-0.2,1.4l-0.4,0l0.8,1.1c-1.6-0.1-0.1,2.6-0.8,3.3c0.3,1.2,0.9,3.4,0.6,5.2c-0.8,0.3-0.8,2.5-1.2,3.9
			c0.2,2.7,0.5,6.6,0.2,10.1l1-0.1l0.1,0.9c-0.2,0-0.3,0.1-0.4,0c-1.2,0.7,0.4,2.1-0.4,2.8c0.9-0.5,0.1-0.6,0.2-1.2
			c0.5-0.7,1.5,0,1,1l-0.2,0l0.5,0.7c-0.8,0.1-1.2,0.7-1.9,0.8c0,0.4,0.1,0.8,0.2,1.1c0,0,0,0-0.1,0c-0.5-0.4-0.8,0.5-1.1,0.5
			c-0.3-0.5-2,0.1-2-1c-1.9-0.5-0.6,1.5-2.4,1.1c-0.3-0.7,1.3-0.3,0.5-0.9l-1.7,0.5c0.1-0.3,0.2-1.1,0.9-1.1
			c-4.8-0.2-8.4-3.1-12.6-0.9c-0.9-0.6,0.3-0.7,0.6-1.3c-2.9,1.9-5.1-0.3-7.8,0.8l0.2,0.6c-2.2-0.3-4.4,0.4-6.5,1.3
			c-0.5,0.2-1.1,0.4-1.6,0.7l-2,0.9c-1.7,0.8-3.3,1.6-5,2.4l1.1-0.1c-0.4,1-1.7,1.8-2.4,2.6c-0.4-0.1-0.4-1.4-2-0.2
			c0.5-0.1,1.5-0.3,1.5,0c-1.6,0.5-3.4,1.4-5.5,2.4c-1.1,0.5-1.9,1.2-2.9,1.9c-0.9,0.7-2,1.4-2.8,2.2c-1.3,1.6-3,3.3-3.8,5
			c-0.9,1.7-1.6,3.6-1.8,5.7c0.1,3,1.2,5.6,2.6,7.7c1.2,1.9,2.8,3.6,4.9,5.2c-0.1,0.2-0.1,0.3,0.1,0.5c-0.9,0.5-1.4-0.2-1.9-0.3
			c0,0.2,1,0.4,0.5,0.9c-1.4-0.2-3.3,0.3-4.9,0.5c0-0.2-0.2-0.5-0.1-0.7c-1,1.4-1.3-0.6-3,0.1c-2.3,0.7-4.8,1.7-7.3,2.7
			c-0.3,0.1-0.6,0.2-1.3,0.4l-1.8,0.6c-1.2,0.4-2.4,0.7-3.5,1.1c-2.3,0.7-4.5,1.3-6.7,1.8c-1,1.4-3.2,2.3-5.3,3.2l-1.9-1.1l-1.5,1
			c-1.4,0,1.3-0.7-0.9-0.7l0.3,0.9c-0.8-0.3-5.8,1.5-3.6-0.4c0,0-0.5,0.2-1.3,0.4c-0.8,0.3-1.9,0.6-2.8,1c-1.8,0.8-3.6,1.5-3.6,1.5
			c-1.7,0.7,1,1.1-1.3,1.6c-1.1-0.1,0.1-0.4-0.9-0.6c-3.5,0.9-4.1,1.9-3.8,2.8c0.2,1,0.6,1.8-2,2.7l0-0.2c0.1,0.5-1.3,1.1-0.9,1.2
			c3.3,0.2-0.8-0.6,2-0.9c2.3,0.5-0.2,0.9,1.7,1.2c-0.7,0.1-1,0.3-1.1,0.4c-0.1,0.2,0.1,0.5-0.1,0.7c-2.3,0.5-2.4,1.5-4.8,1.9
			c0.3,0.4,2.1,0.9,1.3,1.5c-2.3,0.4-1.6-0.2-2.8,0.5l1.2,0.1c-0.7,0.5-0.9,0.4-1.5,0.4c-0.5,0.6,1.2,0.5-0.1,1.2l-0.8-0.4
			c0,0.5-0.4,0.8-1,1.5c-0.6,0-0.3-0.3,0-0.5c-1.9,0.4,0.2,0.7-0.1,0.9c0.5-0.1,1-0.6,1.9-0.4c-0.4,0.4,0.8,0.7-0.6,1l-0.7-0.4
			c0.3,0.7,0.9,0.4-0.1,1.3c0,0-0.3,0-0.4,0c0.4,0.2,0.1,0.6-0.2,0.9c-0.2,0.1-0.4,0.5-0.4,0.9c0,0.4,0,0.8,0.1,1.2L0,233.4
			c0.5,0.6,1.3,0.8,1.4,1.1c0.1-0.8,0.4-0.7,1.2-0.8c-0.9,1.2,2.4,1.3,2.8,2.5c-0.5,0.1-1.4-0.1-1.2-0.5c-1.8-0.2-3.1-0.1-4.2-0.9
			c0.6,0.6,1.2,1.2,0.5,1.1l1.4,0c0.3,0.3,0.4,0.6,0.5,0.7c1,0,0.9-0.8,2.1-0.3c1.2,0.6-1.1,0.6-0.3,0.6c1.5,0.7,2,0,2.5,0.8
			c-0.2,0-0.7-0.1-0.6-0.2c0.1,0.7,2.1,1.1,0.3,1.6c-0.5,0-1.2,0.2-1.2-0.1l0.3-0.1c-2.1-0.2,1,0.3-1,0.6c1-0.3,1.7,0.4,2,0.7
			l1.1-0.4c5.5-0.2-2.6,0.6-0.7,1.4c1.9,0.3,0-0.3,1.6-0.3c0.5,0.4-0.5,0.9,1.1,1.2c-0.3,0.3-0.4,0.8-1.9,1.4
			c1.4,0.1,1.4,1.2,3.4,0.8c0.1-1-2.9,0.1-2.2-1.3l2-0.4c0.9,0.4,3,0.6,3.1,1.1c0.2-0.2,0.5-0.4,1-0.5c1,0.1,2.1,0.1,3.1,0
			c1,0,1.8-0.1,2.5,0.2c-1.2,0.7-2,0.4-2.9,0.2c0,0.8,1.1,0.3,2.5,1c-1.1,0.6-1.1-0.3-2.6,0.2l2.4,0.3c-0.1,0-0.2,0.1-0.2,0.1
			c2.4-1,1.2,0.5,3.4,0.4c3.7,0.4,6.6-1,9.7-1.8c0,0.4-0.2,0.7-0.8,1c-0.1-0.6-0.5-0.2-1.2,0.1c1.3,0,1.1,1.5-0.2,1.9
			c2.4-0.1,0.1-0.7,1.8-0.9c0,0,2.6,0.3,2.6,0.3c0.3-0.7-0.4-0.8,1.5-1.2c1.3-0.1,1.7,0.1,3.2,0.2c-0.5,0.3-0.4,1-1.5,0.9
			c0.5,0.3,1.7,0.4,2.7-0.2c-1.2-0.7,3.1-0.4,2.6-1.5l1.2,0.7c-0.4,0-0.7,0.4-1.1,0.2c-0.2,1,1.5-0.2,2.1-0.3
			c0.4,0.2,1.9,0.4,1.8,0.8c0.6-0.2,1.8,0,1.9,0.6c0.8-0.2,0.3-0.7,0.6-1l2.5,0.2c0,0.6,0,2.1-0.5,2.3c1.2-0.5,0.7-1.6,2.2-1.5
			c-0.5,0.5,0,0.8,0.5,1c0.4,0.3,0.6,0.5,0.1,1.2c0.6,0.8,2.3,0.9,3.2,0.6c0.6-0.8-1-0.5-0.9-1.4c2.7-0.2,2.9-2.6,4.9-2.1l-0.5-0.3
			c1.2-0.4,1.1-0.3,1.8-1.1c-0.4,1.1,1.3,3,3.3,2.9c0.2-0.6-1.1-1.1-0.7-2l1.3-0.1c0.1,0.1-0.1,0.3-0.2,0.4c1.2-0.3,2.2,1.5,2.5,0.2
			l1.1,1.7l-0.5-0.7c0.2-0.5,1.5-0.7,1.8-0.9c1.4-0.6,1.9-0.1,2.6,0.7c-0.2-0.5-0.8-1.5,0.3-1.7c-0.1,1.8,2.2,0.7,2.2,1.7
			c0.4,0,1.2,0.6,1.3-0.2l-0.1,1.1c0.1-1.6,1.7-1.4,2.9-1.7c-0.3,2.1,1.3-0.1,1.8,1.8c0.3-1.4,2.2-0.5,2.4-1.7c0.9,0,0.8,1.3,1,1.8
			l0.4-0.5c0.4,0.7,2.2,0.8,3.2,1.3l1-1.2l0.3,0.6c0.2-0.3,1-0.5,0.5-1l0.5,0.1c0.1-1.4,0.7-0.4,1.8-0.9c0.2,0.2,0.2,0.6-0.1,0.7
			c0.5,0,0.3,0.7,0.6,1.2c-0.4-0.4,1.9-2.4,0.5-3.1c-0.1-0.6,0.7-1,1.2-0.7l0.3,1.3l0.6-1.3c0.8-0.2,1.1,0.6,1.8,0.8
			c-0.7,0.1-1.5,2.4,0.2,2.4c-0.9,0.1-1.4,0.8-1.8,1.1c0.4,0.1,0.5,0.2,0,0.7c1.3-0.4,0.5-0.8,1.8-0.9c-0.1,1.1,0.3,1.5,1.4,1.9
			l-0.8-0.8c0-0.1,0.1-0.2,0.2-0.3c-0.3-0.1-0.4-0.3-0.5-0.7c0.3,0,1.6-1.4,1.8-0.7c-1.3-1.8,2.4-1.3,1.5-2.4
			c0.2-0.3,1.1-0.4,1.2,0.2c-1.1,0.8,0.8,1.3,0.6,2.1c0.4-0.3-0.9-0.8-0.3-1.3c0.7-0.1,1.1,0.6,1.5,1l-0.3,0.2l1,0.5
			c0.2-0.6-1-1,0-1.2c0.2,0.2,1.2,0,1.2,0.4c-0.5,0.8-0.1,1.8-0.9,2c0.7-0.1,2.8-0.2,1.9-1.2l0.8,0c-0.5-0.5-1.9-1.4-0.3-1.5l0,0.2
			l1.1-0.8l0.5,0.6c0-0.3,0.2-0.5,0.6-0.5c0.1,0.3,0.5,0.5,0.5,0.9c1.2,0,1.1-0.6,1.3-0.9c0.7-0.1,0.9,0.2,0.6,0.8
			c0.9,0.2,2.5,0,3.1,0.6c1.2-0.5-0.2-0.2,0.5-1c0.9,1.7,3.3,1,5.2,0.7c0.4,0.5,0.5,0.4,0.3,1.6c-0.1-0.1-0.2,0-0.4-0.1
			c1,1,0.1,2.2,0,3.7l-0.2-0.3c0.3,0.6,1,0.9,0.9,1.2c0.4-0.8,0.7-0.6,1.4-0.7c-1.3,1.1,1.5,1.6,0.7,3.4c-0.4,0-1-0.5-0.5-0.9
			c-1.3-0.6-2.4-0.7-3.1-1.8c0.3,0.7,0.5,1.5-0.1,1.3l1.2,0.2c0,0.4,0,0.7,0,1c0.8,0.2,1.3-0.8,1.8,0.1c0.4,1.1-1.3,0.6-0.7,0.7
			c0.5,1.5,1.3,0.6,0.9,2c-0.1-0.1-0.3-0.4-0.2-0.5c-0.5,1,0.2,2.5-1.3,2.8c-0.3-0.1-0.8-0.2-0.7-0.6l0.2,0c-1.1-1.1,0.3,0.9-1,0.6
			c0.8-0.1,0.6,1.3,0.5,2l0.9-0.2c2.7,2.1-1.8-0.1-1.4,2c0.6,1.3,0.2-0.5,0.9,0.3c-0.2,0.9-1,1.2-0.6,2.5c-0.4,0.4-0.8,1.1-1.8,1.2
			c0.4,0.8-0.5,2.4,0.5,2.9c0.8-1.4-1.1-1.4,0.3-3l1,0.4c0,1.1,0.4,2.5,0.1,3.3c0.2-0.2,0.4-0.2,0.7-0.1c0.4,1.6,1.4,2,1.1,3.6
			c-0.9,0.2-0.8-0.7-0.8-1.4c-0.7,1-0.1,1-0.4,2.6c-0.8,0.1,0-1-0.7-1.2l0.2,1.7c0,0-0.1,0-0.2,0c1.3,0.2-0.1,1.3,0.3,2.3
			c0,2.5,1.8,2.8,2.8,4.2c-0.4,0.4-0.7,0.5-1,0.3c0.6-0.6,0.1-0.5-0.2-0.7c0.1,0.8-1.3,1.8-1.8,1.4c0.4,1.3,0.7-0.5,1.1,0.3
			l-0.1,1.8c0.7-0.2,0.8-0.8,1.3,0.1c0.2,0.8,0,1.2,0,2.2c-0.3-0.1-1,0.3-1-0.4c-0.3,0.5-0.3,1.3,0.4,1.6c0.6-1.1,0.6,1.8,1.6,1
			l-0.6,1.1c0-0.3-0.4-0.3-0.3-0.7c-1,0.3,0.3,0.9,0.4,1.3c-0.2,0.4-0.3,1.4-0.7,1.5c0.3,0.4,0.1,1.2-0.5,1.4c0.2,0.5,0.7,0,1,0.2
			l-0.1,1.8c-0.6,0.1-2.1,0.2-2.4,0c0.5,0.7,1.7,0.2,1.6,1.3c-1.1-0.6-0.8,1.4-2.2,0.5c-0.8,0.6-0.8,2.3-0.5,3.2
			c0.9,0.6,0.5-1,1.4-0.9c0.3,2.6,2.8,2.8,2.4,4.7l0.2-0.5c0.5,1.2,0.4,1.1,1.1,1.8c-1.1-0.3-3,1.4-2.7,3.3c0.6,0.2,1.1-1.1,1.9-0.8
			l0.2,1.3c-0.1,0.1-0.3,0-0.4-0.2c0.4,1.2-1.4,2.2-0.1,2.5l-1.6,1.2l0.7-0.5c0.5,0.2,0.7,1.5,0.9,1.7c0.6,1.3,0.1,1.8-0.6,2.6
			c0.5-0.2,1.5-0.8,1.7,0.2c-1.8,0-0.7,2.2-1.6,2.2c0,0.4-0.5,1.2,0.2,1.2l-1.1-0.1c1.6,0.1,1.5,1.6,1.8,2.8
			c-2.1-0.3,0.2,1.3-1.8,1.8c1.4,0.2,0.6,2.1,1.8,2.3c0.1,0.9-1.3,0.8-1.7,1.1l0.5,0.4c-0.7,0.5-0.8,2.2-1.2,3.2l1.3,0.9l-0.6,0.4
			c0.3,0.1,0.5,0.9,1,0.5l-0.1,0.5c1.4,0,0.4,0.7,1,1.7c-0.2,0.2-0.6,0.2-0.7,0c0,0.5-0.7,0.3-1.2,0.6c0.4-0.4,2.5,1.8,3.1,0.5
			c0.6-0.1,1,0.7,0.7,1.2l-1.2,0.3l1.3,0.6c0.2,0.8-0.6,1.1-0.8,1.8c-0.1-0.7-2.4-1.5-2.4,0.2c-0.2-0.9-0.8-1.3-1.1-1.8
			c0,0.3-0.2,0.5-0.7,0c0.4,1.3,0.8,0.4,0.9,1.7c-1.1-0.1-1.5,0.3-1.9,1.4l0.8-0.8c0.1,0,0.2,0.1,0.3,0.2c0.1-0.3,0.3-0.4,0.7-0.5
			c0,0.3,1.4,1.5,0.7,1.7c1.7-1.3,1.3,2.3,2.4,1.5c0.3,0.1,0.4,1.1-0.2,1.2c-0.8-1.1-1.3,0.8-2.1,0.6c0.3,0.4,0.8-0.9,1.3-0.3
			c0.1,0.7-0.6,1.1-1,1.5l-0.2-0.3l-0.5,1c0.6,0.2,0.9-1,1.2,0c-0.2,0.2,0,1.2-0.4,1.1c-0.8-0.4-1.8-0.1-2-0.9
			c0.1,0.7,0.2,2.7,1.3,1.9l0,0.8c0.5-0.5,1.3-1.9,1.5-0.3l-0.2,0l0.8,1.1l-0.6,0.5c0.3,0,0.5,0.2,0.5,0.6c-0.3,0.1-0.5,0.5-0.9,0.5
			c0,1.2,0.6,1.1,0.9,1.2c0.1,0.7-0.2,0.9-0.8,0.6c-0.1,0.9,0,2.5-0.6,3.1c0.5,1.2,0.2-0.2,1,0.5c-2,1-0.8,4-0.5,5.9
			c1.7-0.5,0.2,0.5,1.7,0.9c-0.5-0.4-1.3,1.9-1.8,0.1l0.2,1c-0.9,0.7-0.7-1.7-2-0.7c0,1.2,1.9,1.9,1.3,3.3c-1.2-0.5,0.4,1.1-0.9,0.7
			c-0.4-0.3-0.3-0.7-0.4-1.1l-0.2,0.2c-0.3,2.6,1.4,0.7,2.3,2.1c0.1,1.6-0.9,1.2-1.5,1.3c-0.2,0.2,0,1,0.3,1.4
			c-0.7-1,0.8-1.8,1.5-1.3c-1.4,0.7-0.1,2.3,0.4,2.7c1.5-2.2,0.1-1.6,1.6-3.6c-0.4-0.3-1.7-0.2-1.2-1.5c0.6,0.8,0.7,0,0.9-0.3
			c-0.7,0.2-0.3-0.9-0.6-1.3c0.6-0.3,1.6,0.8,1.9-0.5l-1.7-0.2c0.2-0.5,1.2,0.2,0.8-0.8c0.9,0.6,1.4-0.2,1.6,1.3
			c1.4-1.7-0.8-2.6-1.4-4c0.1,0.1,0.3,0.1,0.4,0.3c-0.4-0.3-0.4-0.8-0.5-1.2c0.4-0.9,0.8,0.7,1.2,0.5l0-1.4c0,0,0.1,0,0.1,0
			c-0.2-0.4-0.4-0.7,0-0.9c0.5,0.4,1.1,0.6,1.5,0.9l-1.2-1.5c0.6,0.2,0.9-1.2,1.4-0.2l-0.2-2.2l1.1-0.2c-0.2-0.5-0.4-0.5-0.6,0.1
			c0.3-0.8-2-3.4,0.2-3c-0.9-1.7-0.6-2.4-1.1-4.5c1,1.6,1.3-1.9,1.8-0.1c0.5-1-0.7-1.2-0.9-2c0.5-0.7,1.6-0.4,2,0.4l-0.5-0.9l0.2,0
			l-0.6-0.8c0.6-0.9,1.1-0.2,1.3-1.1l-1-0.2l0.6-0.6c-0.5,0.2-0.7-0.3-0.7-1l0.2,0l-0.2-0.8c0.6,0.8,0.2-0.7,0.9-0.4
			c0-0.7,0-0.7-0.1-1.9l-0.7,0.2c-0.6-1.6,1-0.1,1.1-1.4l-0.8,0.1c1.3-1.9-0.7-3.1,0.1-4.5c0.2,0.8,1.1,0.6,0.9,0.6
			c-0.3-1.2-0.1-3.1-1-4.3c1.1-0.4,1.5-0.6,2-1.8c-0.1-0.9-0.2-1-0.8-1.4c0.4-0.9-0.2-2.5,0.6-2.6c-0.7-0.2,0.1-0.8-0.4-1.3l0.3-0.1
			l-0.8,0.1c1.8-1.6-1-2.7,0.5-4.2l0.2,0.3l-0.3-0.7c0.3-0.1,0.6,0.2,1,0.2l0.1-3.1l-0.6,0.6c-0.1-0.7-0.8-1.1-0.4-1.8
			c1.2,1.2,0-1,0.9-1.2l0.3,0.7c-0.1-0.9-0.1-0.9-0.9-0.8c-0.3-1.2,1.5-0.8,0.7-1.9l0,0.8c-0.5,0.2-1.1-0.3-1.1-0.8
			c0.1-0.1,0.5-0.5,0.6-0.1c-0.3-0.9,0.1-2.3-0.2-2.7c0.2-0.5,0.8-0.3,1-0.1c-0.7-2,0.1-0.9-0.5-2.9l0.4,0l-0.5-0.7l0.9-1l-0.6,0.3
			c-0.1-0.7-0.4-1.1-0.1-1.8l0.7,0.3c-0.4-1.8,1.1-2.1,0.2-3.9c0.1-0.1,0.3,0.1,0.4,0.3c-1-1.6,1.2-1.2-0.1-2.9
			c0.2,0.1,0.5-0.1,0.7,0l-0.4-0.7l0.9,0.1l-1.3-0.6l0.9-0.5l-0.4-0.3c1.7-0.8,0.4-1.9,1.7-3l-1.1,0.2c-2.3-2.7,1.3-6.3,0.2-9.6
			l0.9,0.1l-1-1.4c0.7-0.7,0.8,0.4,1.2,0.2c-0.5-1.5-1.3-0.6-1.6-2.3c0.6-0.9,0.7,0.3,1,0.7c-0.4-1.6-0.9-3.9-0.4-5.1
			c-0.1,0-0.3-0.1-0.3,0c-0.4-1.1,0-2.5,0-3.6c0.4,0,0.5,0.3,0.6,0.6c0-0.4,0.3-1-0.1-1.4l0.8,0.4c0.2-0.9-0.5-2.6,0.4-2.8
			c-0.3,0.1-1,0.1-1-0.7c1.4-0.4-0.6-2.1,0.2-3.3c0.3,0.1,0.4,1.1,0.4,0.8c0.4-0.6-0.3-1.2-0.7-1.7l0.6,0.2l-0.8-2.9
			c1.4-0.4-0.2-2.7,0.8-2.5c0-1-0.6,0.9-0.8-0.4c0.6-0.3-0.3-1.2,0.6-1.1l0.1,0.1l-0.1-0.9l0.9,0.6c-0.2-0.8-1.1-1.4-1.7-1.4
			c0.5-0.8,0.1-1.8,0.9-2.1l0.2,0.3c-0.3-2.1,2.4-3.5,0.9-5.1c0.1-0.1,0.3-0.1,0.3,0.1l0.1-1.3l0.7,0.3l-1-2.1l0.4,0
			c0.2-1.4,0-3.6-0.2-5.5l0.2,0.3c-0.7-2,0.4-1.9-0.1-3.4c0.1,0,0.2,0.1,0.2,0.1l0-1.3l0.4,0.3c-1-1,1.3-2.8,0.4-2.2
			c-0.4-0.6-0.9-1.5-1.5-1.6c0-1.4,0.6-0.3,0.9-1.2c0-1-0.7-1.2-0.3-2.6l0.4,0c-0.1-0.7-0.4-1.1-0.5-2l0.2,0.3
			c-0.9-1.5,1.3-1.9-0.6-3c0.4-0.6,0.1-1.8,1-1.7c-0.6-1.8-0.8-3.3-1.2-5.1c1.5-0.3-0.1-0.4,0.8-1.5l-0.8,0.1
			c-0.1-2.6,1.8-5.6,1.5-8.4l0.8-0.1l-0.9-0.6c0.4-3.1,0.7-7.1,0.7-9.5c-0.4-0.8-1.4-2-1.1-3.3l0.1,0.1c-0.5-2.2-0.8-4.6-0.3-7
			c0.3,0.1,0.6-0.1,0.8,0.2c-0.9-0.6,0-1.4,0-1.9l-0.6,0.6c-0.8-0.7,0-1.7,0.6-2l-0.8-1.1c0.1-0.1,0.2-0.2,0.3-0.2l-0.4-0.2l1-0.6
			c-0.2-0.3-0.5-1.7-1.5-2.2c0.3-0.1,0.6-1.1,0.8-0.3l0.3-4l-0.4,0.6c-0.8,0.1-1.3-1.1-0.9-1.7c0.6,0.8,1.1,0.1,1.7-0.3
			c-0.4-0.5-0.7,0.5-1.1,0.2c-0.5-0.7-0.8-2.1-0.4-2.5l0.3,0.4c-0.3-0.9,1.1-1.4,1-2.3c-0.6-0.8,0-1.4-1.4-1.3
			c-0.3-1.2,0.9-0.5,1-0.8c-0.6-0.6-0.2-2.2,0.5-2.4c-2-0.7,0.7-3.2-0.9-3.4l0.9-1c-0.4,0-1.5-0.2-1.6-1c0.5-0.7,1.3-0.6,1.7-0.8
			l-1.7-0.5c1.8-4.3,0.6-9.9,2.1-14.6c-0.3-2.1-1.1-4.7-0.9-7.2l0.2,0.3l0.5-2.4l-0.8,1.8c-0.2-0.5-0.5-0.9-0.5-1.5
			c0.7-2.7,1.5-6.2,0.7-9.5c-1.9-2.1,1.7-1.4,0.3-3.4c0.2,0.2,0.4,0.2,0.6,0.4c-0.6-2.2-1-3.4-2.1-5.6c1.9,0.3,0-1.4,0.9-1.2
			l-0.8-0.2c0.5-0.5,0.6-1.6,1.2-1.5l-1-1l0.8-0.1c0.1-1.3-0.6-4,1-4.7c-1.2-3.2-0.8-8.2-0.5-12.2c-0.6-0.6-0.7-1.7-0.8-2.6l0.9-1
			c-0.3-0.9-1.5-1.9-0.9-2.8c0.1,0,0.2,0,0.2,0.1c-0.2-0.9,0.3-1.8-0.6-2.7c0-1,0.6-2,1.4-1.7c-1.6-0.1,0.2-2.2,0.2-2.2
			s3.8-53-4.7-65.9C136.4,19.3,135.9,18.1,134.9,18.5z M118.8,212c0,0.1,0.1,0.2,0.1,0.2l-0.3-0.1
			C118.6,212.1,118.7,212.1,118.8,212z M122.8,246.6c0,0,0,0.1,0,0.1C122.8,246.7,122.8,246.6,122.8,246.6z M117.8,163.4
			c0,0.1,0,0.3,0.1,0.4c-0.2,0-0.4,0-0.4,0C117.3,163.7,117.7,163.5,117.8,163.4z M91.6,184.9c-2.6,0.7,0.2-0.3,0.3-0.2
			c0,0,0.4-0.3,0.9-0.4c0.2,0,0.4,0,0.5,0c0,0,0.1,0,0.1,0c0,0,0,0,0,0l0,0l0.5-0.2c0.7-0.4,1.5-0.7,2.2-1
			c5.9-2.7,12.2-4.9,17.7-6.5c1.7-0.5,3.3-0.9,4.8-1.4c0.3,2.2-1.1,3.9-0.3,6c0.6,0.2,0.2-0.9,0.7-0.7c1.1,2.3-1,2-0.2,4.1l-0.8-0.4
			c0.5,0.7,1.2,1,0.6,2.1c-0.9,0.2-0.7-1-1.2-1.5c0,0.8,0.2,2.7,1,2.1c0.3,0.9-0.5,1.3-0.8,1.8c0.2,0,0.6-0.9,1-0.3
			c-0.1,0.2-0.1,0.4-0.2,0.7l0,0l-0.6-0.1l-1.2-0.2c-1.6-0.3-3.3-0.4-4.9,0c-2.2,1.8-1.2-1.8-3.3-0.5c0.2-0.2,0.3-0.4,0.4-0.6
			c-2.1,0.5-3.3,0.7-5.5,1.6c0.4-1.8-1.3-0.1-1-1.1l-0.3,0.8c-0.4-0.5-1.5-0.8-1.2-1.3l-1,0.8l0-0.8c-1.2-0.2-3.8,0-4.1-1.7
			c-0.7,0.2-1.7,0.2-2.4,0.2c-0.2,0.1-0.7,0-0.8,0c-0.3,0-0.5-0.3-0.6-0.5c-0.6,0.5-0.9,0.5-1.1,0.4c0,0,0.2-0.2,0.5-0.4
			c0.2-0.2,0.5-0.4,0.5-0.4c-0.4,0.2-2.1,0.9-1.4,0.4c0.1-0.1,0.2-0.1,0.3-0.1c-0.4,0,0.2-0.3-1.2,0.1
			C89.4,185.6,90.1,185.2,91.6,184.9z M120,242.9c0.3-0.4,0.5-0.9,0.7-1.2c0.1-0.1,0.2-0.2,0.3-0.3c-0.2,0-0.4,0-0.7,0.2
			c0,0.1,0.1,0.1,0.1,0.2l-1.1,0.8c0.2-0.6-1.2-1-0.2-1.4l-2.2,0.2l-0.2-1.1c-0.5,0.2-0.6,0.4,0.1,0.6c-0.8-0.3-3.4,1.9-3-0.3
			c-1.8,0.9-2.4,0.5-4.5,1.1c1.6-1-1.9-1.3-0.1-1.8c-1-0.5-1.2,0.7-2,0.9c-0.7-0.5-0.4-1.6,0.4-2l-1,0.5l0-0.2l-0.8,0.6
			c-0.9-0.6-0.2-1.1-1.1-1.3l-0.2,1l-0.6-0.6c0.2,0.5-0.3,0.7-1,0.7l0-0.2l-0.8,0.2c0.8-0.6-0.7-0.2-0.3-0.9c-0.7-0.1-0.7,0-1.9,0.1
			l0.2,0.7c-1.6,0.6,0-1-1.4-1.1l0.1,0.8c-1.8-1.4-3.2,0.7-4.6-0.2c0.8-0.2,0.6-1.1,0.6-0.9c-1.2,0.3-3.1,0-4.4,0.9
			c-0.4-1.1-0.5-1.5-1.8-2c-0.9,0-1.1,0.1-1.4,0.8c-0.9-0.5-2.6,0.1-2.6-0.7c-0.2,0.7-0.8-0.2-1.3,0.4l-0.1-0.3l0,0.8
			c-1.5-1.8-2.7,0.9-4.3-0.7l0.3-0.2l-0.7,0.3c-0.1-0.3,0.2-0.6,0.2-1l-3.1-0.2l0.6,0.6c-0.7,0.1-1.1,0.8-1.9,0.3
			c1.3-1.1-1-0.1-1.2-1l0.7-0.3c-0.9,0-0.9,0-0.9,0.8c-1.2,0.2-0.8-1.5-1.9-0.7l0.8,0.1c0.2,0.5-0.4,1.1-0.9,1
			c-0.1-0.1-0.5-0.5-0.1-0.6c-0.9,0.3-2.3-0.2-2.8,0.1c-0.5-0.3-0.3-0.8,0-1c-2,0.6-0.9-0.2-2.9,0.4l0-0.4l-0.7,0.5l-0.9-1l0.3,0.6
			c-0.7,0-1.1,0.4-1.8,0.1l0.3-0.6c-1.9,0.3-2.1-1.2-3.9-0.4c-0.1-0.1,0.2-0.3,0.3-0.4c-1.7,1-1.2-1.2-2.9,0c0.1-0.2,0-0.5,0-0.7
			l-0.8,0.4l0.1-0.9c0,0-0.2,0.3-0.3,0.6c-0.1,0.3-0.2,0.7-0.2,0.7l-0.1-0.9l-0.2,0.4c-0.1-1.7-0.8-0.5-0.8-1.8l-0.3,1.1
			c-1,1.1-1.9,0.8-2.2,0.2c-0.4-0.5-0.4-1.2-1.6-0.7l1-0.8c0,0-0.4,0.2-0.8,0.5c-0.4,0.2-0.9,0.5-0.9,0.5c0.6-0.7,1.1-0.7,1.5-1.1
			c-1.1,0.4-1.8,1.2-2.8,1.4c0.5-0.6,1-0.6,1.6-0.9c-1.1,0.4-2.9,0.7-2.5,0.3c-0.2,0.1-0.5,0.2-0.6,0.3c-1.1,0.3-1-0.1-1.6-0.1
			c0.8-0.4,1.1-0.4,1.3-0.5c-0.1-0.1,0.3-0.3-0.7,0l1.7-0.7c0.1-0.1-2.1,0.4-0.1-0.4c-0.7,0.3-2.2,0.9-2.4,0.8
			c3-1.2-2.1,0.4-0.8-0.3c0.9-0.3,1.3-0.3,1.3-0.3c0.7-0.3-1.1,0.2-2.4,0.5l1.5-0.4c0,0-0.8,0.1-1.5,0.2c-0.8,0.1-1.6,0.2-1.6,0.2
			c3.7-1.1-1.6-0.1,1.4-0.8c-0.2-0.1-1.5,0.5-2.5,0.5c1.6-0.4-1.3,0.1,1.5-0.6l0.4-0.1l-0.5,0l2.9-0.6c-0.8,0.1-3.8,0.6-6,1
			c1.3-0.4-0.4-0.3,2.2-0.9l0.8-0.1c-0.9-0.1,0.9-0.6,2.4-0.9c1.5-0.4,2.6-0.6-0.2-0.5c0.4-0.1,1.3-0.1,1.2-0.1
			c-0.1,0,0.2-0.3,0.3-0.3l2.4-0.1c0,0-0.8,0-1.7,0c-0.8,0-1.6,0-1.6,0l1.6-0.1c0.9-0.2,0.5-0.4,0.5-0.6l0.6,0
			c-1.7-0.2,1.7-0.2,0.5-0.3c0.3,0,0.4,0,0.5,0l0.2-0.1l1.2,0.1c-2.5-0.2,3.9,0,1.5,0c-1.1-0.1-2.7-0.3-3.6-0.4
			c0.2-0.1,1.6,0.1,2.7,0.1c0.2,0-0.6-0.2-0.7-0.2c0,0,0,0,0.4,0l1,0.2c-0.1-0.1-0.7-0.2-0.7-0.3l0.4,0.1c-1.6-0.5,3,0.5-0.7-0.5
			c0.8,0.1,0.6-0.1,2.2,0.4c-0.8-0.4-0.9-0.7-1-1c2.2,0.9,0-0.1,1.4,0.4l-1.1-0.5c0.3-0.1,1.2,0.1,1.9,0.3c0.7,0.2,1.2,0.5,1.3,0.4
			l0.6,0.7l-0.5-0.8c0.3,0.1,0.6,0.2,0.8,0.3c0,0,0.5-0.1,0.9-0.1c0.4-0.1,0.8-0.1,1.2-0.2c0.7-0.2,1.4-0.3,2-0.4
			c0.7-0.6,1.6-1.8,2.9-1.8l-0.1,0.1c2.1-0.9,4.3-1.8,6.7-1.9c-0.1,0.4,0.2,0.5,0,0.8c0.4-1,1.4-0.4,1.9-0.4l-0.7-0.4
			c0.5-0.9,1.6-0.4,2.1,0.1l0.9-1.1c0.1,0.1,0.2,0.2,0.3,0.3l0.1-0.4l0.8,0.9c0.2-0.3,1.6-0.8,1.8-1.9c0.2,0.3,1.2,0.4,0.5,0.7
			l4-0.5l-0.7-0.2c-0.2-0.8,0.8-1.5,1.5-1.3c-0.7,0.8,0.2,1.1,0.6,1.6c0.4-0.5-0.6-0.6-0.4-1.1c0.6-0.7,1.9-1.2,2.4-0.9l-0.3,0.4
			c0.8-0.5,1.5,0.8,2.4,0.5c0.7-0.8,1.4-0.3,1-1.6c1.1-0.5,0.6,0.8,1,0.9c0.4-0.7,2.1-0.7,2.5,0c0.2-2.1,3.3,0.1,3.2-1.6l1.1,0.7
			c0-0.4-0.1-1.5,0.7-1.8c0.8,0.3,0.8,1.1,1.1,1.5l0.2-1.7c4.6,0.9,9.9-1.3,14.9-0.8c2-0.7,4.5-2,7-2.2l-0.2,0.3l1.1,0
			c0.2,0.7,0.3,1.5,0.4,2.2l-1.6,0.1l0.5,1.2c-0.5,0.5-0.3-0.9-0.9-0.1l1,0.5c-0.6,0.1-0.4,3.1-1.5,1.1l0,4.7c0,1,1.3,0.6,0.9,1.7
			c-0.5,0.2-0.3-0.4-0.9-0.3c-1.2,3.4,3.1,3.9,2.3,7.1l-0.2-0.3c0.4,0.5,0.4,1.6,0.6,1.6c1.6-0.4-0.9-0.6,0.1-1.6
			c1.3,0.1,0.7,1.2,1.7,1.1c-0.5,0.8,0.3,1.2,0.4,1.8c-0.8,1.1-0.2,2.7-1.3,3.5c0.4,0.5,1.7,1.2,1.8,2.3c-1,0.8-1-0.2-1.4,0.9
			l0.8,0.2c-0.1,0.9-0.3,0.8-0.7,0.8c0,0.9,0.7,0.9,0.6,1.7l-0.5,0l-0.3-0.3c0,0.1,0,0.2,0.1,0.3h0c0,0,0-0.1,0-0.1
			C120.5,243.2,120.2,243.3,120,242.9z M122.5,247.2L122.5,247.2c0-0.1,0.1-0.1,0.2-0.1C122.6,247.2,122.5,247.2,122.5,247.2z"/>
	</g>
	<g>
		<path class="st0" d="M121.4,278.2l0.1-0.6c-0.2,0-0.4,0-0.7-0.3L121.4,278.2z"/>
	</g>
	<g>
		<path class="st0" d="M124.5,338.7c0-0.1,0-0.3-0.1-0.5C124.3,338.4,124.4,338.5,124.5,338.7z"/>
	</g>
	<g>
		<path class="st0" d="M123.4,283.8c0-0.2-0.1-0.3-0.3-0.5C123.2,283.5,123.3,283.7,123.4,283.8z"/>
	</g>
	<g>
		<path class="st0" d="M124.2,337.6l0.1-0.6c-0.1,0-0.1,0-0.2,0L124.2,337.6z"/>
	</g>
	<g>
		<path class="st0" d="M123,342c0-0.2,0-0.6,0.1-0.8C122.9,341.5,122.9,341.8,123,342z"/>
	</g>
	<g>
		<path class="st0" d="M124.9,312C124.9,311.9,124.9,311.9,124.9,312C124.5,311.4,124.7,311.7,124.9,312z"/>
	</g>
	<g>
		<path class="st0" d="M122.7,334.8C122.7,334.8,122.7,334.7,122.7,334.8l-0.2-0.3L122.7,334.8z"/>
	</g>
	<g>
		<path class="st0" d="M122.6,344.8c0-0.1-0.1-0.2-0.2-0.3c0,0.1-0.1,0.2-0.1,0.4C122.5,344.8,122.6,344.8,122.6,344.8z"/>
	</g>
	<g>
		<path class="st0" d="M123.5,321.6c0.3,0.2,0.6,0.2,0.7,0.3C124.2,321.7,124.1,321.5,123.5,321.6z"/>
	</g>
	<g>
		<path class="st0" d="M162.5,83.2l-0.2-0.4C162.3,83.1,162.4,83.2,162.5,83.2z"/>
	</g>
	<g>
		<path class="st0" d="M166.2,34.2C166.2,34.2,166.2,34.2,166.2,34.2c0.1-0.2,0.1-0.6,0.2-1.2L166.2,34.2z"/>
	</g>
	<g>
		<path class="st0" d="M161.5,109.9c0.2,0.1,0.2,0.3,0.3,0.5C161.8,110.1,161.8,109.9,161.5,109.9z"/>
	</g>
	<g>
		<path class="st0" d="M174.9,24.5l-0.6,0.5C174.5,25,174.8,24.8,174.9,24.5z"/>
	</g>
	<g>
		<path class="st0" d="M170.1,13.1c0,0.2,0.2,0.3,0.3,0.5C170.4,13.4,170.4,13.2,170.1,13.1z"/>
	</g>
	<g>
		<path class="st0" d="M170.5,13.9c0-0.1-0.1-0.2-0.1-0.2C170.4,13.8,170.4,13.9,170.5,13.9z"/>
	</g>
	<g>
		<path class="st0" d="M162.4,386.1c0,0.5,0.4,1,0.8,1.5L162.4,386.1z"/>
	</g>
	<g>
		<path class="st0" d="M176.5,34.4c0.6,0.5-0.1,1.6,0.4,1.6C176.8,35.4,177.2,34.6,176.5,34.4z"/>
	</g>
	<g>
		<path class="st0" d="M167.7,386.3c-0.1,0-0.2,0.1-0.3,0.1c0.1,0.1,0.1,0.2,0.1,0.3L167.7,386.3z"/>
	</g>
	<g>
		<path class="st0" d="M158.9,269.5C158.9,269.5,158.9,269.5,158.9,269.5c0-0.1-0.1-0.1-0.1-0.1L158.9,269.5z"/>
	</g>
	<g>
		<path class="st0" d="M158,272.7c-0.1-0.2-0.1-0.5-0.2-0.7C157.8,272.4,157.9,272.6,158,272.7z"/>
	</g>
	<g>
		<path class="st0" d="M163.2,387.6l0.5,0.8C163.6,388.1,163.4,387.8,163.2,387.6z"/>
	</g>
	<g>
		<path class="st0" d="M161.8,107.4c0-0.1,0.1-0.2,0.1-0.3C161.8,107,161.7,107.1,161.8,107.4z"/>
	</g>
	<g>
		<path class="st0" d="M177.2,131.7L177.2,131.7C177.2,131.7,177.2,131.7,177.2,131.7C177.2,131.7,177.2,131.7,177.2,131.7z"/>
	</g>
	<g>
		<path class="st0" d="M176.5,130.4c-0.1,0.4,0.3,1,0.7,1.3C177.2,131.3,177,130.9,176.5,130.4z"/>
	</g>
	<g>
		<path class="st0" d="M178,108.4C178,108.4,178,108.4,178,108.4C178,108.4,178,108.4,178,108.4L178,108.4z"/>
	</g>
	<g>
		<path class="st0" d="M178.5,147.4C178.5,147.4,178.5,147.4,178.5,147.4C178.5,147.4,178.5,147.4,178.5,147.4
			C178.5,147.4,178.5,147.4,178.5,147.4z"/>
	</g>
	<g>
		<path class="st0" d="M178.2,107.7l-0.1,0.7c0.2,0,0.4,0,0.7,0.3L178.2,107.7z"/>
	</g>
	<g>
		<path class="st0" d="M178.5,147.4c0.2,0,0.4,0,0.7-0.2C179,146.7,178.7,147.1,178.5,147.4z"/>
	</g>
	<g>
		<path class="st0" d="M175.8,89.7c0.1,0.1,0.2,0.2,0.4,0.2C176,89.7,175.9,89.6,175.8,89.7z"/>
	</g>
	<g>
		<path class="st0" d="M175,42.6c0,0.1,0,0.3,0.1,0.6C175.2,42.9,175.1,42.8,175,42.6z"/>
	</g>
	<g>
		<path class="st0" d="M176.1,101.7c0,0.2,0.1,0.4,0.3,0.5C176.4,102,176.2,101.8,176.1,101.7z"/>
	</g>
	<g>
		<path class="st0" d="M175.4,43.8l-0.1,0.7c0.1,0,0.1,0,0.2,0L175.4,43.8z"/>
	</g>
	<g>
		<path class="st0" d="M176.6,39c0,0.3,0,0.6-0.1,0.9C176.7,39.5,176.7,39.3,176.6,39z"/>
	</g>
	<g>
		<path class="st0" d="M174.6,71.4C174.6,71.4,174.6,71.4,174.6,71.4C175,72,174.9,71.7,174.6,71.4z"/>
	</g>
	<g>
		<path class="st0" d="M176.9,46.8C176.9,46.8,176.9,46.9,176.9,46.8l0.2,0.3L176.9,46.8z"/>
	</g>
	<g>
		<path class="st0" d="M176.9,36c0,0.1,0.1,0.2,0.2,0.3c0-0.1,0.1-0.2,0.1-0.4C177,36,177,36,176.9,36z"/>
	</g>
	<g>
		<path class="st0" d="M176,61c-0.3-0.2-0.6-0.3-0.7-0.3C175.3,60.9,175.5,61.1,176,61z"/>
	</g>
	<g>
		<path class="st0" d="M56.2,233.2l0.3-0.2C56.3,233,56.2,233.1,56.2,233.2z"/>
	</g>
	<g>
		<path class="st0" d="M101.9,238.3C101.9,238.4,101.9,238.4,101.9,238.3c0.2,0.1,0.6,0.1,1.2,0.2L101.9,238.3z"/>
	</g>
	<g>
		<path class="st0" d="M47.6,227.4L47.6,227.4C47.6,227.4,47.8,227.4,47.6,227.4z"/>
	</g>
	<g>
		<path class="st0" d="M45.9,231.9c0,0,0.2,0,0.7-0.2C46.3,231.8,46.1,231.8,45.9,231.9z"/>
	</g>
	<g>
		<path class="st0" d="M110.9,247.2l-0.5-0.6C110.4,246.8,110.6,247.1,110.9,247.2z"/>
	</g>
	<g>
		<path class="st0" d="M121.6,242.5c-0.1,0-0.3,0.1-0.5,0.3C121.3,242.8,121.6,242.8,121.6,242.5z"/>
	</g>
	<g>
		<path class="st0" d="M101.6,248.6c-0.5,0.6-1.6-0.1-1.6,0.4C100.6,249,101.3,249.4,101.6,248.6z"/>
	</g>
	<g>
		<path class="st0" d="M111.7,188.7L111.7,188.7c0.1,0,0.1-0.1,0.1-0.1L111.7,188.7z"/>
	</g>
	<g>
		<path class="st0" d="M108.9,187.6c0.2,0,0.4-0.1,0.6-0.1C109.2,187.4,109,187.4,108.9,187.6z"/>
	</g>
	<g>
		<path class="st0" d="M46.9,232c-0.1,0-0.1,0.1-0.1,0.1C47,232,47.2,231.9,46.9,232z"/>
	</g>
	<g>
		<polygon class="st0" points="2.5,236.6 2.5,236.6 2.5,236.6 		"/>
	</g>
	<g>
		<path class="st0" d="M2.5,236.6c0.2,0.2,0.6,0.5,1.6,0.6C4,236.9,3.2,236.7,2.5,236.6z"/>
	</g>
	<g>
		<path class="st0" d="M19.6,245.6L19.6,245.6C19.6,245.5,19.6,245.6,19.6,245.6L19.6,245.6z"/>
	</g>
	<g>
		<polygon class="st0" points="2.8,226.5 2.8,226.5 2.8,226.5 		"/>
	</g>
	<g>
		<path class="st0" d="M20.1,245.9l-0.5-0.3c-0.3,0.2-0.7,0.3-1.4,0.4L20.1,245.9z"/>
	</g>
	<g>
		<path class="st0" d="M2.8,226.5c-0.3,0-0.6,0-1.1,0.1C1.7,226.9,2.3,226.6,2.8,226.5z"/>
	</g>
	<g>
		<path class="st0" d="M47.2,246.1c-0.2,0.1-0.3,0.2-0.4,0.4C47.1,246.3,47.2,246.2,47.2,246.1z"/>
	</g>
	<g>
		<path class="st0" d="M93.8,247c-0.1,0-0.3,0-0.5,0.1C93.5,247.2,93.7,247.1,93.8,247z"/>
	</g>
	<g>
		<path class="st0" d="M30.7,245.2c-0.3,0-0.6,0-1,0.2C30,245.4,30.4,245.3,30.7,245.2z"/>
	</g>
	<g>
		<path class="st0" d="M92.7,247.3l-0.7-0.1c0,0.1,0,0.1,0,0.2L92.7,247.3z"/>
	</g>
	<g>
		<path class="st0" d="M97.2,248.6c-0.3,0-0.6,0-0.8-0.1C96.7,248.8,97,248.8,97.2,248.6z"/>
	</g>
	<g>
		<path class="st0" d="M66.8,245.8C66.7,245.9,66.7,245.9,66.8,245.8C66.2,246.2,66.5,246.1,66.8,245.8z"/>
	</g>
	<g>
		<polygon class="st0" points="89.8,248.8 89.8,248.8 89.6,249 		"/>
	</g>
	<g>
		<path class="st0" d="M100,249c-0.1,0-0.2,0-0.3,0.2c0.1,0,0.2,0.1,0.4,0.1C100,249.2,100,249.1,100,249z"/>
	</g>
	<g>
		<path class="st0" d="M76.5,247.6c0.2-0.3,0.3-0.6,0.3-0.7C76.6,246.8,76.4,247,76.5,247.6z"/>
	</g>
	<g>
		<path class="st0" d="M267.2,180.5L267.2,180.5c0.1,0.1,0.2,0.1,0.4,0.2L267.2,180.5z"/>
	</g>
	<g>
		<path class="st0" d="M243.9,175.9c0,0.2-0.1,0.2-0.2,0.3C243.8,176.2,243.9,176.1,243.9,175.9z"/>
	</g>
	<g>
		<path class="st0" d="M270.1,188.6c0,0.3,0.1,0.5,0.2,0.6L270.1,188.6z"/>
	</g>
	<g>
		<path class="st0" d="M273.7,184.5c0,0-0.1,0.2-0.2,0.3C273.6,184.7,273.7,184.7,273.7,184.5z"/>
	</g>
	<g>
		<path class="st0" d="M157.6,183.1c-0.2,0-0.2,0.5-0.3,0.9L157.6,183.1z"/>
	</g>
	<g>
		<path class="st0" d="M267.2,190.8c-0.2,0.6-0.5-0.1-0.5,0.4C266.9,191.2,267.1,191.6,267.2,190.8z"/>
	</g>
	<g>
		<path class="st0" d="M194,174.7L194,174.7c0,0,0-0.1,0-0.1L194,174.7z"/>
	</g>
	<g>
		<path class="st0" d="M192.9,173.8l0.2-0.2C193,173.6,192.9,173.7,192.9,173.8z"/>
	</g>
	<g>
		<path class="st0" d="M244.7,176.2c0,0,0.1,0.1,0.1,0.1C244.8,176.2,244.7,176.1,244.7,176.2z"/>
	</g>
	<g>
		<polygon class="st0" points="237.2,191.6 237.2,191.6 237.2,191.6 		"/>
	</g>
	<g>
		<path class="st0" d="M237.6,190.8c-0.1-0.1-0.3,0.3-0.4,0.7C237.3,191.6,237.5,191.4,237.6,190.8z"/>
	</g>
	<g>
		<polygon class="st0" points="244.4,192.4 244.4,192.3 244.4,192.4 		"/>
	</g>
	<g>
		<polygon class="st0" points="232.4,192.9 232.4,192.9 232.4,192.9 		"/>
	</g>
	<g>
		<path class="st0" d="M277.3,190.1c0,0.1-0.1,0.1-0.1,0.2C277.3,190.3,277.3,190.2,277.3,190.1z"/>
	</g>
	<g>
		<path class="st0" d="M277.8,188.1c-0.8-1.5-0.5-0.1-1.2-1.6c-0.1,0.4-0.1,1.7-0.5,1.2c0.3-0.6,0-0.7-0.1-0.9
			c0.1,0.7-0.3,0.3-0.4,0.6c-0.1-0.6,0.2-1.6-0.2-1.9l-0.1,1.7c-0.2-0.2,0.1-1.2-0.3-0.8c0.2-0.9-0.1-1.4,0.4-1.6
			c-0.6-1.4-0.9,0.8-1.3,1.4c0-0.1,0-0.3,0.1-0.4c-0.1,0.4-0.3,0.4-0.4,0.5c-0.3-0.4,0.2-0.8,0.1-1.2l-0.5,0c0,0,0-0.1,0-0.1
			c-0.1,0.2-0.2,0.4-0.3,0c0.1-0.5,0.2-1.1,0.3-1.5l-0.5,1.2c0-0.6-0.4-0.9-0.1-1.4l-0.7,0.2l-0.1-1.1c-0.2,0.2-0.2,0.4,0,0.6
			c-0.2-0.3-1.1,2-1-0.2c-0.6,0.9-0.8,0.6-1.5,1.1c0.5-1-0.6-1.3,0-1.8c-0.3-0.5-0.4,0.7-0.7,0.9c-0.2-0.5-0.1-1.6,0.1-2l-0.3,0.5
			V181l-0.3,0.6c-0.3-0.6-0.1-1.1-0.4-1.3l-0.1,1l-0.2-0.6c0.1,0.5-0.1,0.7-0.3,0.7v-0.2l-0.3,0.2c0.3-0.6-0.2-0.2-0.1-0.9
			c-0.2,0-0.2,0-0.6,0.1l0.1,0.7c-0.5,0.6,0-1-0.5-1.1l0,0.8c-0.6-1.3-1,0.7-1.5-0.1c0.3-0.2,0.2-1.1,0.2-0.9c-0.4,0.3-1,0.1-1.4,1
			c-0.1-1.1-0.2-1.5-0.6-2c-0.3,0.1-0.3,0.2-0.4,0.8c-0.3-0.4-0.8,0.2-0.9-0.6c-0.1,0.7-0.3-0.1-0.4,0.4l0-0.3l0,0.8
			c-0.5-1.8-0.9,1-1.4-0.5l0.1-0.2l-0.2,0.3c0-0.3,0-0.6,0.1-1l-1-0.1l0.2,0.6c-0.2,0.1-0.4,0.8-0.6,0.4c0.4-1.2-0.3,0-0.4-0.9
			l0.2-0.3c-0.3,0.1-0.3,0.1-0.3,0.9c-0.4,0.3-0.3-1.5-0.6-0.7l0.3,0c0.1,0.5-0.1,1.1-0.3,1.1c0-0.1-0.2-0.5,0-0.6
			c-0.3,0.3-0.8-0.1-0.9,0.2c-0.2-0.2-0.1-0.8,0-1c-0.7,0.7-0.3-0.1-1,0.5l0-0.4l-0.2,0.5l-0.3-0.9l0.1,0.6
			c-0.2,0.1-0.4,0.4-0.6,0.1l0.1-0.7c-0.6,0.4-0.7-1.1-1.3-0.2c0-0.1,0-0.3,0.1-0.4c-0.5,1-0.4-1.2-0.9,0.1c0-0.2,0-0.5,0-0.7
			l-0.2,0.4l0-0.9l-0.2,1.3l-0.1-0.9l-0.1,0.4c-0.3-1.7-0.6-0.4-1-1.7l0.1,1.1c-0.9,2.3-2.1-1.3-3.2-0.2l0-0.9l-0.5,1
			c-0.2-0.7,0.1-0.8,0.1-1.2c-0.5,0.5-0.2,1.3-0.8,1.6c-0.3-0.6,0.1-0.7,0.2-1c-0.5,0.4-1.3,0.9-1.7,0.4c0,0.1,0,0.3,0,0.3
			c-0.4,0.4-0.8,0-1.2,0c0-0.4,0.1-0.5,0.2-0.6c-0.1,0-0.3-0.3-0.5,0.1l0.1-0.8c-0.3-0.2-0.9,0.5-0.9-0.4c0,0.3,0,1-0.2,1
			c-0.1-1.4-0.7,0.6-1.1-0.2c0-0.3,0.4-0.4,0.3-0.4c-0.2-0.4-0.4,0.3-0.6,0.7l0-0.6l-1,0.8c-0.1-1.4-0.9,0.2-0.8-0.8
			c-0.3,0,0.3,0.6-0.1,0.8c-0.1-0.6-0.4,0.3-0.4-0.6l0-0.1l-0.3,0.1l0.2-0.9c-0.3,0.2-0.5,1.1-0.5,1.7c-0.2-0.5-0.6-0.1-0.7-0.9
			l0.1-0.2c-0.7,0.3-1.2-2.4-1.7-0.9c0-0.1,0-0.3,0-0.3l-0.4-0.1l0.1-0.7l-0.7,1v-0.4c-0.5-0.2-1.2,0-1.8,0.2l0.1-0.2
			c-0.7,0.7-0.7-0.4-1.1,0.1c0-0.1,0-0.2,0-0.2l-0.4,0l0.1-0.4c-0.3,1-0.9-1.2-0.7-0.4c-0.2,0.4-0.5,0.9-0.5,1.5
			c-0.5,0-0.1-0.6-0.4-0.9c-0.3,0-0.4,0.7-0.9,0.3v-0.4c-0.2,0.1-0.3,0.4-0.7,0.5l0.1-0.2c-0.5,0.9-0.6-1.3-1,0.7
			c-0.2-0.4-0.6-0.1-0.6-1c-0.6,0.6-1.1,0.9-1.7,1.2c-0.1-1.5-0.1,0.1-0.5-0.7l0,0.8c-0.9,0.1-1.9-1.8-2.9-1.5l0-0.8l-0.2,0.9
			c-1-0.3-2.4-0.6-3.2-0.6c-0.3,0.4-0.7,1.4-1.1,1.1l0-0.1c-0.7,0.5-1.5,0.8-2.4,0.4c0-0.3,0-0.6,0-0.8c-0.2,0.9-0.5,0.1-0.7,0
			l0.2,0.6c-0.2,0.8-0.6,0-0.7-0.5l-0.3,0.9c0-0.1-0.1-0.2-0.1-0.3l0,0.4l-0.2-1c-0.1,0.2-0.6,0.5-0.7,1.5c0-0.3-0.4-0.6-0.1-0.8
			l-1.4-0.3l0.2,0.4c0,0.8-0.3,1.3-0.6,0.9c0.2-0.6,0-1.1-0.2-1.7c-0.2,0.4,0.2,0.7,0.1,1.1c-0.2,0.5-0.7,0.8-0.8,0.5l0.1-0.3
			c-0.3,0.3-0.5-1.1-0.8-1c-0.3,0.6-0.5,0.1-0.4,1.4c-0.4,0.3-0.2-0.9-0.3-1c-0.2,0.7-0.7,0.3-0.8-0.4c-0.1,2-1.1-0.7-1.1,1
			l-0.4-0.9c0,0.4,0,1.5-0.3,1.6c-0.3-0.5-0.2-1.3-0.3-1.7l-0.1,1.7c-1.5-1.7-3.4-0.5-5.1-1.8c-0.7,0.4-1.5,1.2-2.4,1l0.1-0.2
			L197,174l0.7,0.7c-0.2,0.2-0.3,0.5-0.5,0.5c-0.9-0.6-2.2-1.4-3.3-0.5c-0.6,2-0.6-1.7-1.2-0.2c0-0.2,0-0.5,0.1-0.6
			c-0.7,0.7-1.1,1.1-1.7,2.2c-0.1-1.9-0.5,0.1-0.5-0.9v0.8c-0.2-0.5-0.6-0.6-0.6-1.1l-0.3,1l-0.1-0.8c-0.4,0-1.3,0.7-1.7-0.9
			c-1,1.3-2.7,1-4.1,0.9c-0.1,0.7-0.5,0.8-0.8,0.9l-0.4-0.9c-0.3,0.3-0.5,1.5-0.9,1c0-0.1,0-0.2,0-0.2c0,0-0.1,0-0.2,0l-0.5-1.2
			c0.5-0.5,0.3,1,0.9,0.1l-1-0.5c0.6-0.1,0.4-3.3,1.5-1.2l0-5c0-1.1-1.3-0.7-0.9-1.9c0.5-0.2,0.3,0.4,0.9,0.3
			c1.2-3.7-3.1-4.3-2.3-7.7l0.2,0.3c-0.4-0.6-0.4-1.7-0.6-1.7c-1.6,0.4,0.9,0.6-0.1,1.7c-1.3-0.1-0.7-1.3-1.7-1.2
			c0.5-0.8-0.3-1.3-0.4-2c0.8-1.2,0.2-2.9,1.3-3.8c-0.4-0.6-1.7-1.2-1.8-2.5c1-0.9,1,0.2,1.4-1l-0.8-0.2c0.1-1,0.3-0.8,0.7-0.8
			c0-1.1-1.1-0.9-0.6-2.2l0.8,0.8c-0.3-1-0.2-1.4-0.1-2.8c0.4,0,0.4,0.6,0.3,1c1.2-0.8-0.5-1.3-0.4-1.7c-0.3,0.1-0.5,1.1-1.3,0.6
			c0.1-0.7-1.1-1.5-0.1-2l0.8,0.8c-0.6-1.4-1-0.8-0.7-2.4c0.1,0.1,0.2,0,0.4,0.1c-1-1-0.1-2.4,0-3.9l0.2,0.3c-0.3-0.6-1-1-0.9-1.3
			c-0.4,0.9-0.7,0.6-1.4,0.7c1.3-1.2-1.5-1.8-0.7-3.7c0.4,0,1,0.5,0.5,1c1.3,0.7,2.4,0.7,3.1,1.9c-0.3-0.7-0.5-1.6,0.1-1.4l-1.2-0.2
			c0-0.4,0-0.8,0-1.1c-0.8-0.2-1.3,0.9-1.8-0.1c-0.4-1.1,1.3-0.6,0.7-0.8c-0.5-1.6-1.3-0.7-0.9-2.2c0.1,0.1,0.3,0.4,0.2,0.6
			c0.5-1.1-0.2-2.7,1.3-3c0.3,0.2,0.8,0.2,0.6,0.6l-0.2,0c1.1,1.2-0.3-1,1-0.6c-0.8,0.1-0.6-1.4-0.5-2.1l-0.9,0.2
			c-2.7-2.3,1.8,0.1,1.4-2.1c-0.6-1.4-0.2,0.5-0.9-0.3c0.2-1,1-1.3,0.6-2.7c0.4-0.4,0.8-1.2,1.8-1.3c-0.4-0.9,0.5-2.6-0.5-3.1
			c-0.8,1.5,1.1,1.5-0.3,3.2l-1-0.5c0-1.2-0.4-2.7-0.1-3.5c-0.2,0.2-0.4,0.2-0.7,0.1c-0.4-1.7-1.4-2.2-1.1-3.8
			c0.9-0.2,0.8,0.8,0.8,1.5c0.7-1.1,0.1-1.1,0.4-2.8c0.8-0.1,0,1.1,0.7,1.3l-0.2-1.8c0,0,0.1,0,0.2,0c-1.3-0.3,0.1-1.4-0.3-2.5
			c0-2.6-1.8-3.1-2.8-4.5c0.4-0.4,0.7-0.5,1-0.3c-0.6,0.7-0.1,0.5,0.2,0.8c-0.1-0.9,1.3-2,1.8-1.5c-0.4-1.4-0.7,0.5-1.1-0.4l0.1-1.9
			c-0.7,0.2-0.8,0.9-1.3-0.1c-0.2-0.8,0-1.3,0-2.4c0.3,0.2,1-0.3,1,0.5c0.3-0.5,0.3-1.4-0.4-1.7c-0.6,1.2-0.6-2-1.6-1.1l0.6-1.2
			c0,0.3,0.4,0.3,0.3,0.7c1-0.3-0.3-1-0.4-1.4c0.2-0.4,0.3-1.5,0.7-1.6c-0.3-0.4-0.1-1.3,0.5-1.5c-0.2-0.6-0.7,0-1-0.2l0.1-1.9
			c0.6-0.1,2.1-0.3,2.4,0c-0.5-0.7-1.7-0.3-1.6-1.4c1.1,0.6,0.8-1.5,2.2-0.5c0.8-0.6,0.8-2.4,0.5-3.4c-0.9-0.6-0.5,1.1-1.4,1
			c-0.3-2.8-2.8-3-2.4-5l-0.2,0.5c-0.5-1.3-0.4-1.1-1.1-1.9c1.1,0.4,3-1.5,2.7-3.6c-0.6-0.2-1.1,1.2-1.9,0.8l-0.2-1.4
			c0.1-0.1,0.3,0,0.4,0.2c-0.4-1.3,1.4-2.3,0.1-2.7l1.6-1.3l-0.7,0.5c-0.5-0.2-0.7-1.6-0.9-1.9c-0.6-1.4-0.1-2,0.6-2.8
			c-0.5,0.2-1.5,0.9-1.7-0.3c1.8,0,0.7-2.4,1.6-2.3c0-0.5,0.5-1.3-0.2-1.3l1.1,0.1c-1.6-0.1-1.5-1.8-1.8-3.1c2.1,0.3-0.2-1.4,1.8-2
			c-1.4-0.2-0.6-2.3-1.8-2.5c-0.1-1,1.3-0.9,1.7-1.1l-0.5-0.5c0.7-0.5,0.8-2.3,1.2-3.4l-1.3-1l0.6-0.4c-0.3-0.2-0.5-1-1-0.5l0.1-0.6
			c-1.4,0-0.4-0.8-1-1.9c0.2-0.3,0.6-0.2,0.7,0c0-0.6,0.7-0.3,1.2-0.6c-0.4,0.4-2.5-2-3.1-0.5c-0.6,0.1-1-0.8-0.7-1.3l1.2-0.3
			l-1.3-0.7c-0.2-0.8,0.6-1.2,0.8-1.9c0.1,0.7,2.4,1.6,2.4-0.3c0.2,1,0.8,1.4,1.1,1.9c0-0.4,0.2-0.6,0.7,0c-0.4-1.4-0.8-0.5-0.9-1.9
			c1.1,0.1,1.5-0.3,1.9-1.5l-0.8,0.9c-0.1,0-0.2-0.1-0.3-0.2c-0.1,0.3-0.3,0.4-0.7,0.5c0-0.3-1.4-1.6-0.7-1.9
			c-1.7,1.4-1.3-2.5-2.4-1.6c-0.3-0.2-0.4-1.1,0.2-1.2c0.8,1.2,1.3-0.9,2.1-0.7c-0.3-0.4-0.8,0.9-1.3,0.3c-0.1-0.7,0.6-1.2,1-1.6
			l0.2,0.3l0.5-1.1c-0.6-0.2-0.9,1-1.2,0c0.2-0.3,0-1.3,0.4-1.2c0.8,0.5,1.8,0.1,2,1c-0.1-0.7-0.2-2.9-1.3-2l0-0.8
			c-0.5,0.5-1.3,2-1.5,0.3l0.2,0l-0.8-1.2l0.6-0.5c-0.3,0-0.5-0.2-0.5-0.6c0.3-0.1,0.5-0.5,0.9-0.5c0-1.3-0.6-1.2-0.9-1.3
			c-0.1-0.7,0.2-1,0.8-0.6c0.1-1,0-2.6,0.6-3.3c-0.5-1.3-0.2,0.3-1-0.5c2-1.1,0.8-4.3,0.5-6.4c-1.7,0.6-0.2-0.6-1.7-1
			c0.5,0.5,1.3-2,1.8-0.2l-0.2-1.1c0.9-0.8,0.7,1.9,2,0.7c0-1.3-1.9-2.1-1.3-3.6c1.2,0.5-0.4-1.1,0.9-0.8c0.4,0.3,0.3,0.7,0.4,1.1
			l0.2-0.3c0.3-2.8-1.4-0.8-2.3-2.3c-0.1-1.7,0.9-1.3,1.5-1.4c0.2-0.3,0-1.1-0.3-1.6c0.7,1-0.8,1.9-1.5,1.4c1.4-0.7,0.1-2.5-0.4-3
			c-1.5,2.4-0.1,1.7-1.6,3.9c0.4,0.3,1.7,0.3,1.2,1.6c-0.6-0.8-0.7,0.1-0.9,0.3c0.7-0.3,0.3,0.9,0.6,1.4c-0.6,0.4-1.6-0.8-1.9,0.6
			l1.7,0.3c-0.2,0.5-1.2-0.2-0.8,0.9c-0.9-0.6-1.4,0.2-1.6-1.4c-1.4,1.8,0.8,2.8,1.4,4.3c-0.1-0.1-0.3-0.2-0.4-0.3
			c0.4,0.3,0.4,0.9,0.5,1.3c-0.4,0.9-0.8-0.8-1.2-0.5l0,1.5c0,0-0.1,0-0.1,0c0.2,0.4,0.4,0.8,0,0.9c-0.5-0.5-1.1-0.6-1.5-0.9
			l1.2,1.6c-0.6-0.2-0.9,1.3-1.4,0.2l0.2,2.4l-1.1,0.2c0.2,0.6,0.4,0.6,0.6-0.1c-0.3,0.8,2,3.6-0.2,3.2c0.9,1.9,0.6,2.5,1.1,4.8
			c-1-1.7-1.3,2-1.8,0.1c-0.5,1.1,0.7,1.3,0.9,2.2c-0.5,0.8-1.6,0.4-2-0.4l0.5,1l-0.2,0l0.6,0.9c-0.6,0.9-1.1,0.2-1.3,1.2l1,0.2
			l-0.6,0.7c0.5-0.2,0.7,0.3,0.7,1l-0.2,0l0.2,0.8c-0.6-0.8-0.2,0.8-0.9,0.4c0,0.7,0,0.8,0.1,2.1L167,36c0.6,1.7-1,0.1-1.1,1.5
			l0.8-0.1c-1.3,2,0.7,3.4-0.1,4.9c-0.2-0.8-1.1-0.6-0.9-0.6c0.3,1.3,0.1,3.3,1,4.7c-1.1,0.5-1.5,0.6-2,2c0.1,1,0.2,1.1,0.8,1.5
			c-0.4,0.9,0.2,2.7-0.6,2.8c0.7,0.2-0.1,0.9,0.4,1.4l-0.3,0.1l0.8-0.1c-1.8,1.7,1,2.9-0.5,4.6l-0.2-0.3l0.3,0.7
			c-0.3,0.1-0.6-0.2-1-0.2l-0.1,3.3l0.6-0.7c0.1,0.7,0.8,1.2,0.4,2c-1.2-1.3,0,1.1-0.9,1.3L164,64c0.1,1,0.1,1,0.9,0.9
			c0.3,1.3-1.5,0.9-0.7,2l0-0.8c0.5-0.2,1.1,0.4,1.1,0.9c-0.1,0.1-0.5,0.5-0.6,0.1c0.3,1-0.1,2.5,0.2,2.9c-0.2,0.5-0.8,0.4-1,0.1
			c0.7,2.1-0.1,1,0.5,3.1l-0.4,0l0.5,0.7l-0.9,1l0.6-0.4c0.1,0.7,0.4,1.1,0.1,2l-0.7-0.3c0.4,2-1.1,2.3-0.2,4.2
			c-0.1,0.1-0.3-0.2-0.4-0.3c1,1.7-1.2,1.3,0.1,3.1c-0.2-0.1-0.5,0.1-0.7,0l0.4,0.8l-0.9-0.1l1.3,0.7l-0.9,0.5l0.4,0.3
			c-1.7,0.8-0.4,2.1-1.7,3.2l1.1-0.2c2.3,3-1.3,6.7-0.2,10.3l-0.9-0.1l1,1.5c-0.7,0.8-0.8-0.5-1.2-0.2c0.5,1.6,1.3,0.7,1.6,2.5
			c-0.6,0.9-0.7-0.3-1-0.8c0.4,1.7,0.9,4.2,0.4,5.5c0.1,0,0.3,0.1,0.3,0c0.4,1.1,0,2.6,0,3.9c-0.4,0-0.5-0.3-0.6-0.7
			c0,0.5-0.3,1.1,0.1,1.5l-0.8-0.5c-0.2,1,0.5,2.8-0.4,3c0.3-0.1,1-0.1,1,0.8c-1.4,0.5,0.6,2.3-0.2,3.6c-0.3-0.2-0.4-1.1-0.4-0.9
			c-0.4,0.7,0.3,1.3,0.7,1.9l-0.6-0.2l0.8,3.1c-1.4,0.5,0.2,2.9-0.8,2.7c0,1.1,0.6-0.9,0.8,0.5c-0.6,0.4,0.3,1.3-0.6,1.2l-0.1-0.1
			l0.1,1l-0.9-0.6c0.2,0.8,1.1,1.5,1.7,1.5c-0.5,0.8-0.1,1.9-0.9,2.3l-0.2-0.3c0.3,2.3-2.4,3.7-0.9,5.5c-0.1,0.1-0.3,0.1-0.3-0.2
			l-0.1,1.4l-0.7-0.3l1,2.3l-0.4,0c-0.2,1.5,0,3.9,0.2,5.9l-0.2-0.3c0.7,2.1-0.4,2.1,0.1,3.6c-0.1-0.1-0.2-0.1-0.2-0.2l0,1.4
			l-0.4-0.3c1,1-1.3,3-0.4,2.3c0.4,0.6,0.9,1.6,1.5,1.8c0,1.5-0.6,0.4-0.9,1.3c0,1.1,0.7,1.3,0.3,2.8l-0.4,0
			c0.1,0.7,0.4,1.1,0.5,2.1l-0.2-0.3c0.9,1.6-1.3,2,0.6,3.2c-0.4,0.7-0.1,1.9-1,1.9c0.6,2,0.8,3.5,1.2,5.5c-1.5,0.3,0.1,0.4-0.8,1.6
			l0.8-0.1c0.1,2.7-1.7,5.9-1.5,8.9c0,0.1-0.1,0.1-0.2,0.2l-0.6,0.1l0.4,0.3c-0.3,0.5-0.6,1.1-0.8,1.7c0,0.8-0.3,1.4,0.1,2.2
			c-0.2,0.3-0.7-0.9-0.6-0.2c0.5,0.4,0.3,2,0.9,2.8l-0.2,0.2c0.1,0.5,0.2-0.7,0.4,0.3l-0.2-1.4c0.1,0.1,0.3,0.2,0.4,0.4
			c-0.1,1.7-0.2,3.3-0.2,4.5c0.4,0.9,1.4,2.2,1.1,3.6l-0.1-0.1c0.5,2.4,0.8,4.9,0.3,7.6c-0.3-0.2-0.6,0.1-0.8-0.2
			c0.9,0.6,0,1.5,0,2.1l0.6-0.7c0.8,0.7,0,1.8-0.6,2.2l0.8,1.2c-0.1,0.1-0.2,0.2-0.3,0.2l0.4,0.2l-1,0.6c0.2,0.3,0.5,1.8,1.5,2.3
			c-0.3,0.1-0.6,1.2-0.8,0.4l-0.3,4.3l0.4-0.7c0.8-0.1,1.3,1.2,0.9,1.9c-0.6-0.9-1.1-0.1-1.7,0.3c0.4,0.6,0.7-0.5,1.1-0.2
			c0.5,0.7,0.8,2.3,0.4,2.7l-0.3-0.4c0.3,1-1.1,1.5-1,2.4c0.6,0.9,0,1.5,1.4,1.4c0.3,1.3-0.9,0.5-1,0.9c0.6,0.6,0.2,2.4-0.5,2.6
			c2,0.7-0.7,3.4,0.9,3.7l-0.9,1c0.4,0,1.5,0.2,1.6,1.1c-0.5,0.8-1.3,0.6-1.7,0.8l1.7,0.5c-1.8,4.6-0.6,10.7-2.1,15.7
			c0.3,2.3,1.1,5.1,0.9,7.7l-0.2-0.3l-0.5,2.6l0.8-1.9c0.2,0.6,0.5,1,0.5,1.6c-0.7,2.9-1.5,6.7-0.7,10.2c1.9,2.3-1.7,1.5-0.3,3.7
			c-0.2-0.2-0.4-0.3-0.6-0.4c0.6,2.4,1,3.6,2.1,6c-1.9-0.3,0,1.5-0.9,1.3l0.8,0.2c-0.5,0.5-0.6,1.8-1.2,1.6l1,1l-0.8,0.1
			c-0.1,1.4,0.6,4.4-1,5.1c1.2,3.4,0.8,8.8,0.5,13.1c0.6,0.6,0.7,1.9,0.8,2.8l-0.9,1c0.3,1,1.5,2.1,0.9,3c-0.1,0-0.2,0-0.2-0.1
			c0.2,1-0.3,2,0.6,2.9c0,1.1-0.6,2.2-1.4,1.8c1.6,0.1-0.2,2.4-0.2,2.4s-3.8,57.1,4.7,71c0.8,0.5,1.3,1.8,2.2,1.3
			c0.3,1-1.1,1.5-0.3,1.6c0.5-1.4,2,0.4,3-0.9l0.2,0.8c0.6,0.2-0.6-1.2,0.4-0.9l-1.4-0.2c0.2-0.7,0.5-1.1,1-1.3
			c-0.6-0.7-2.5-1.1-1.7-2.6l0.1,0.4c0-1.3,0.9-0.8,1.2-1l0,0.3l0.7-1.1c-0.5,0.8,0.7,2.1,0.6,1.4c0.4-1.5-0.3,0.4-0.5-0.7
			c-0.1-0.7,0.7-0.5,1.1-0.5l0-1.3c0.7,0,0,0.8,0.7,0.3l-0.7-1.6c1.7-0.3-0.8-1.7,0.8-2.4c0.4,1.1,0.6-0.1,1.1,0.1l-0.1-2.8
			c0.2-0.3,0.5,0.7,0.4,0.3c0.5-0.5-0.4-0.9-0.4-1.1c0.5-0.2,0-2.1,1.1-2c0.8-1.9-1.4-0.8-0.8-2.6c0.7-0.2,0.2,1.4,0.9,0.6l-0.2-1.8
			c0.3,0.2,1.1,0.4,1,1c0.9-5,4.5-7.6,3.6-12.2c0.8-0.6,0.5,0.5,1.1,0.9c-1.1-3.3,1.8-4.6,1.7-7.4l-0.7,0c2.1-3.9,0.8-8.6,1.7-13
			l-0.5,0.5c-0.6-0.6-0.7-1.6-1-2.3c0.3-0.1,1.4,0.5,1.2-0.8c-0.2,0.3-0.5,0.8-0.8,0.6c1.7-3.8,1.3-11.8,2.2-18
			c-0.5-8.4,0.8-17.5,0.4-25.8c0,1.3-1.6,0.7-1.2-0.2c2.8-2.6-0.5-4.5,1.4-7.1c-0.9-4.8,1.5-9.1-0.6-13.6l0.8-0.1
			c0.4-0.7-0.2-0.8-0.3-1.6l0.2,0c0.3-1.7-0.5-3.7-0.1-4.6l-0.9-0.1c-0.1-1,0.7-0.5,0.2-1.5l0.4,0l-0.8-1.2c1.6,0.1,0.1-2.8,0.8-3.6
			c-0.3-1.3-0.9-3.7-0.6-5.6c0.8-0.4,0.8-2.7,1.2-4.2c-0.2-2.9-0.5-7.1-0.2-10.9l-1,0.1l-0.1-1c0.2,0,0.3-0.1,0.4,0
			c1.2-0.8-0.4-2.3,0.4-3c-0.9,0.5-0.1,0.7-0.2,1.2c-0.5,0.8-1.5,0-1-1l0.2,0l-0.5-0.7c0.8-0.1,1.2-0.8,1.9-0.8
			c0-0.6-0.1-1.2-0.2-1.8c0.5,0.2,1,0.7,1.5-0.4l0,0.6c0.1,0.3,0.1-0.1,0.3-0.2v0.2c0.3,0.2,0.6-0.4,0.8-0.1l0-0.7
			c0.2,0,0.1,0.5,0.2,0.1l0,0.3l0.2-0.6c0,1.2,0.5,0.1,0.6,0.6c0.2-0.2,0.6-0.7,0.9-0.5c0,0.6,0.4,0.6,0.7,0.9
			c0.5-0.1,1.2-0.3,1.8-0.1l0-0.8l0.2,0c0,0.2,0,0.3,0,0.3c0.1,0.9,0.4-0.3,0.5,0.3c-0.1-0.7-0.1-0.1-0.2-0.1
			c-0.1-0.4,0-1.1,0.2-0.7l0,0.2l0.1-0.4c0,0.6,0.1,0.9,0.1,1.5c0.5-0.1,0.9-1.1,1.5-0.8c-0.1,0.7,0.4-0.2,0.3,1
			c0.3-0.4,0-0.9,0.1-1.7c0.1,0,0.2-0.3,0.2,0.1c0,0.3,0,0.7,0,0.8l0.2-0.1c0,0.1,0,0.2-0.1,0.3c0.5-0.7,0.8,0.8,1.2,0.1
			c0-0.4-0.2-0.1-0.1-0.5c0.4-0.8,0.3,0.8,0.7,0.2l-0.1,0.6c0.1-0.4,0.2-0.9,0.4-0.4c0,0.7-0.2,0.6-0.3,0.9c0.1,0,0.5-0.1,0.4-0.8
			c0.2-0.2,0.2,0.4,0.3,0.6c0-0.2-0.1-0.5,0-0.8c0.2,0.4,0.6,0.4,0.8,0.5c0,0.2,0,0.4,0,0.5c0.2-0.9,0.2,0.6,0.5,0.5
			c0.8-0.2,1.9-1.1,2.7-0.8c0.2-0.9,0.5-0.9,0.7-1.1l0,1.2l0.2-0.4c0.1,0.4-0.2,0.2,0,0.7l0.1-0.7c0,0.4,0.5,0.3,0.2,1.1l0.8,0
			c0.2,0,0.1-1,0.3-0.7c0,0.3-0.1,0.2-0.1,0.7c0.6,0.9,0.8-2.3,1.4-1.7l0,0.2c0.1-0.3,0.3-0.3,0.3-0.4c0-1.2-0.1,0.6-0.3-0.1
			c0-1,0.2-0.5,0.2-1.3c0.1,0.4,0.2-0.2,0.3-0.3c0.2,0.6,0.5,0.2,0.6,1c0.1-0.3,0.2-1.3,0.5-1.3c0.1,0.8-0.1,0.8,0.1,1l0-0.6
			c0.2,0.1,0.1,0.3,0.1,0.5c0.2,0,0.2-0.8,0.4-0.4l-0.1,0.6c0.2-0.2,0.2-0.1,0.5-0.1c0,0.3-0.1,0.3-0.2,0.2c0.1,0.9,0.2-0.4,0.3-0.3
			c0-0.3-0.2-0.4-0.1-0.9c0.1,0.1,0.3-0.8,0.3-0.1l-0.1,0.6c0.3-0.4,0.1-0.7,0.4-0.5c0,0,0,0.2,0,0.3c0.2-0.7,0.4-0.1,0.7,0l0,0.2
			c0.1-0.2,0.2-0.7,0.2-0.7c-0.1-0.3-0.1-0.5-0.1-1.1c0.2,1,0.3-1.1,0.6-0.5c0,0.3-0.1,0.7-0.2,0.4c-0.1,1-0.2,1.8-0.4,2.3
			c0.1-0.2,0.3-0.4,0.2,0.1l0.1-0.9c0.1,0,0.1,0,0.2,0c0-0.6-0.1-1,0.1-1.3c0.2-0.3,0.1,0.9,0.1,0.5c0.3-0.4,0.1-1,0.4-0.7
			c0,0.1-0.1,0.2-0.1,0.1c0.2,0.4,0.5-0.1,0.5,1c0,0.2,0,0.6-0.1,0.5l0-0.2c-0.2,0.8,0.2-0.2,0.1,0.8c0-0.6,0.3-0.5,0.4-0.3l0-0.7
			c0.4-2-0.1,1.3,0.3,1.1c0.3-0.4-0.1-0.2,0.1-0.7c0.2,0.1,0.2,0.7,0.5,0.4c0.1,0.3,0.2,0.6,0.2,1.4c0.1-0.3,0.4,0.4,0.5-0.4
			c-0.2-0.6-0.3,0.8-0.5-0.2l0.1-0.7c0.2,0,0.5-0.3,0.6,0c0-0.1,0-0.3,0-0.5c0.3-0.3,0.4-1,0.7-0.8c0,0.7-0.1,0.6-0.3,0.6
			c0.2,0.5,0.2,0,0.5,0.3c0,0.6-0.2,0-0.2,0.5l0.3-0.2c0,0,0,0.1,0,0.1c0.1-1,0.2,0.1,0.4-0.2c0.5,0,0.5-1.3,0.8-2.1
			c0.1,0.3,0.1,0.5,0,0.8c-0.1-0.4-0.1-0.1-0.1,0.2c0.1-0.1,0.3,1,0.2,1.4c0.2-0.3-0.1-0.5,0.1-0.8l0.3,0.1c0-0.5-0.1-0.6,0-1
			c0.1-0.1,0.2,0,0.4,0c0,0.2,0,0.8-0.1,0.7c0.1,0.2,0.2,0.2,0.3-0.3c-0.2-0.5,0.3-0.4,0.2-1.2l0.2,0.5c0,0-0.1,0.3-0.1,0.2
			c0,0.8,0.2-0.2,0.2-0.3c0.1,0.1,0.3,0.2,0.3,0.5c0.1-0.2,0.2,0,0.2,0.4c0.1-0.1,0-0.5,0-0.8l0.3,0.1c0,0.4,0,1.6,0,1.8
			c0.1-0.4,0.1-1.3,0.2-1.2c-0.1,0.8,0.2,0.6,0.1,1.6c0.1,0.6,0.4,0.6,0.6,0.4c0.1-0.7-0.2-0.4-0.2-1c0.5-0.2,0.5-2.1,0.9-1.8
			l-0.1-0.2c0.2-0.4,0.2-0.3,0.3-0.9c-0.1,0.8,0.2,2.2,0.6,2.1c0-0.4-0.2-0.8-0.1-1.5l0.2-0.1c0,0.1,0,0.2,0,0.3
			c0.2-0.3,0.4,1.1,0.5,0.1l0.2,1.2l-0.1-0.5c0-0.4,0.3-0.5,0.3-0.7c0.2-0.5,0.3-0.1,0.5,0.4c0-0.3-0.1-1.1,0-1.3
			c0,1.4,0.4,0.5,0.4,1.2c0.1,0,0.2,0.4,0.2-0.2l0,0.8c0-1.2,0.3-1.1,0.5-1.3c0,1.6,0.2-0.1,0.4,1.3c0-1.1,0.4-0.4,0.4-1.4
			c0.2,0,0.2,0.9,0.2,1.3l0.1-0.4c0.1,0.5,0.4,0.6,0.6,0.9l0.2-0.9l0.1,0.4c0-0.2,0.2-0.4,0.1-0.7l0.1,0c0-1,0.1-0.3,0.3-0.7
			c0,0.2,0,0.4,0,0.6c0.1,0,0.1,0.5,0.1,0.9c-0.1-0.3,0.3-1.9,0-2.3c0-0.4,0.1-0.7,0.2-0.6l0.1,0.9l0.1-1c0.1-0.1,0.2,0.5,0.3,0.6
			c-0.1,0.1-0.2,1.8,0.1,1.8c-0.2,0.1-0.2,0.7-0.3,0.8c0.1,0,0.1,0.1,0,0.5c0.2-0.3,0.1-0.6,0.3-0.7c0,0.8,0.1,1.1,0.3,1.4l-0.2-0.6
			c0-0.1,0-0.2,0-0.2c-0.1-0.1-0.1-0.2-0.1-0.5c0,0,0.2-1,0.3-0.5c-0.3-1.3,0.4-1,0.2-1.8c0-0.2,0.2-0.3,0.2,0.1
			c-0.1,0.5,0,0.8,0.1,1.1c0-0.2-0.1-0.4,0-0.5c0.1-0.1,0.2,0.5,0.3,0.7l0,0.2l0.2,0.4c0-0.4-0.2-0.7,0-0.9c0,0.2,0.2,0,0.2,0.3
			c-0.1,0.6,0,1.3-0.1,1.5c0.1-0.1,0.5-0.2,0.3-0.9l0.1,0c-0.1-0.3-0.4-1-0.1-1.1v0.2l0.2-0.6l0.1,0.4c0-0.2,0-0.4,0.1-0.4
			c0,0.2,0.1,0.3,0.1,0.7c0.2,0,0.2-0.5,0.2-0.7c0.1-0.1,0.2,0.1,0.1,0.6c0.2,0.1,0.5,0,0.6,0.4c0.2-0.4-0.1-0.2,0-0.8
			c0.3,1.5,0.8,0.5,1.1,0.3c-0.2-1.3,0.1-0.1,0.1-1.3c0,0.4,0.4,1,0.1,1.3l0.2-0.1c0.2,0.7-0.3,0.6,0,1.5c0.2-0.1,0.2-1.5,0.6-1
			c0,0.9,0.2-0.3,0.2,0.7c0,0.3-0.1,0.2-0.2,0.3l0.1,0.2c0.5,0.2,0-1.1,0.2-1.7c0.3-0.1,0.3,0.7,0.4,1.1c0.1,0.2,0.2,0,0.3-0.2
			c-0.1,0.6-0.4-0.5-0.4-1.1c0.2,1,0.4,0,0.5-0.4c-0.5-1-0.3,0-0.8-1.2c0,0.3,0.1,1.3-0.2,0.9c0.1-0.5-0.1-0.5-0.1-0.7
			c0.1,0.5-0.1,0.2-0.2,0.5c-0.1-0.4,0-1.2-0.2-1.4l0.1,1.3c-0.1-0.2,0-0.9-0.2-0.6c0-0.7-0.1-1,0.1-1.2c-0.4-1-0.4,0.6-0.6,1.1
			c0-0.1,0-0.2,0-0.3c0,0.3-0.1,0.3-0.2,0.4c-0.2-0.3,0.1-0.6,0-0.9l-0.3,0c0,0,0-0.1,0-0.1c0,0.2-0.1,0.3-0.2,0
			c0-0.4,0-0.8,0.1-1.2l-0.2,0.9c0-0.4-0.3-0.7-0.1-1l-0.4,0.2l-0.1-0.8c-0.1,0.2-0.1,0.3,0,0.4c-0.1-0.2-0.5,1.5-0.5-0.2
			c-0.3,0.7-0.4,0.4-0.8,0.9c0.2-0.8-0.4-1-0.1-1.3c-0.2-0.4-0.2,0.6-0.3,0.7c-0.1-0.4-0.1-1.2,0-1.5l-0.1,0.4v-0.2l-0.1,0.5
			c-0.2-0.4-0.1-0.8-0.2-1v0.8l-0.1-0.4c0,0.3,0,0.5-0.1,0.6v-0.2l-0.1,0.1c0.1-0.5-0.1-0.2-0.1-0.7c-0.1,0-0.1,0-0.3,0.1l0,0.5
			c-0.3,0.5,0-0.8-0.3-0.8l0,0.6c-0.4-1-0.5,0.6-0.8,0c0.1-0.1,0.1-0.8,0.1-0.7c-0.2,0.2-0.6,0.1-0.8,0.8c-0.1-0.8-0.1-1.1-0.4-1.5
			c-0.2,0-0.2,0.1-0.2,0.6c-0.2-0.3-0.4,0.2-0.5-0.5c0,0.5-0.1-0.1-0.2,0.3l0-0.3l0,0.6c-0.3-1.3-0.5,0.8-0.8-0.4l0-0.2l-0.1,0.2
			c0-0.3,0-0.4,0-0.8l-0.5-0.1l0.1,0.4c-0.1,0.1-0.2,0.6-0.3,0.3c0.2-0.9-0.2,0-0.2-0.7l0.1-0.2c-0.2,0-0.2,0-0.1,0.6
			c-0.2,0.2-0.1-1.1-0.3-0.5l0.1,0c0,0.3-0.1,0.8-0.1,0.8c0-0.1-0.1-0.4,0-0.4c-0.2,0.2-0.4-0.1-0.5,0.1c-0.1-0.2-0.1-0.6,0-0.8
			c-0.4,0.5-0.2-0.1-0.5,0.4l0-0.3l-0.1,0.4l-0.2-0.7l0.1,0.4c-0.1,0.1-0.2,0.3-0.3,0.1l0.1-0.5c-0.3,0.3-0.4-0.8-0.7-0.1
			c0-0.1,0-0.2,0-0.3c-0.3,0.8-0.2-0.9-0.5,0.1c0-0.2,0-0.4,0-0.5l-0.1,0.3l0-0.7l-0.1,1l-0.1-0.7l0,0.3c-0.1-1.3-0.3-0.3-0.5-1.3
			l0,0.8c-0.5,1.7-1.1-1-1.7-0.2l0-0.7l-0.3,0.8c-0.1-0.5,0.1-0.6,0-0.9c-0.3,0.4-0.1,1-0.4,1.2c-0.1-0.5,0.1-0.5,0.1-0.7
			c-0.3,0.3-0.7,0.7-0.9,0.3c0,0.1,0,0.2,0,0.2c-0.2,0.3-0.4,0-0.6,0c0-0.3,0.1-0.4,0.1-0.4c-0.1,0-0.2-0.3-0.2,0l0.1-0.6
			c-0.2-0.1-0.5,0.4-0.5-0.3c0,0.3,0,0.8-0.1,0.7c0-1-0.4,0.4-0.6-0.1c0-0.2,0.2-0.3,0.1-0.3c-0.1-0.3-0.2,0.2-0.3,0.5l0-0.4
			l-0.5,0.6c0-1-0.5,0.1-0.4-0.6c-0.2,0,0.1,0.5-0.1,0.6c0-0.4-0.2,0.2-0.2-0.5l0-0.1l-0.2,0l0.1-0.7c-0.1,0.1-0.3,0.8-0.3,1.3
			c-0.1-0.4-0.3-0.1-0.4-0.7l0-0.2c-0.4,0.2-0.6-1.8-0.9-0.7c0-0.1,0-0.3,0-0.2l-0.2,0l0.1-0.5l-0.4,0.8l0-0.3c-0.2-0.1-0.7,0-1,0.1
			l0-0.2c-0.4,0.5-0.3-0.3-0.6,0c0-0.1,0-0.1,0-0.1h-0.2l0.1-0.3c-0.2,0.7-0.5-1-0.4-0.3c-0.1,0.3-0.3,0.7-0.3,1.1
			c-0.3,0,0-0.4-0.2-0.7c-0.2,0-0.2,0.5-0.5,0.2l0-0.3c-0.1,0.1-0.2,0.3-0.4,0.3l0-0.2c-0.3,0.7-0.3-1-0.6,0.5
			c-0.1-0.3-0.3-0.1-0.3-0.7c-0.3,0.4-0.6,0.6-0.9,0.9c0-1.1-0.1,0.1-0.3-0.6v0.6c-0.5,0.1-1-1.4-1.5-1.2v-0.6l-0.1,0.6
			c-0.5-0.3-1.3-0.6-1.7-0.6c-0.2,0.3-0.4,1-0.6,0.8l0-0.1c-0.4,0.3-0.8,0.6-1.3,0.2c0-0.2,0-0.4,0-0.6c-0.1,0.7-0.3,0-0.4,0
			l0.1,0.4c-0.1,0.6-0.3,0-0.4-0.4l-0.2,0.6c0-0.1,0-0.1,0-0.2l0,0.3l-0.1-0.8c0,0.2-0.3,0.3-0.4,1.1c0-0.3-0.2-0.5,0-0.6l-0.7-0.3
			l0.1,0.3c0,0.6-0.2,1-0.3,0.7c0.2-0.5,0-0.8,0-1.3c-0.1,0.3,0.1,0.5,0,0.8c-0.1,0.4-0.4,0.6-0.5,0.3l0.1-0.2
			c-0.2,0.2-0.2-0.8-0.4-0.8c-0.2,0.5-0.3,0-0.3,1c-0.2,0.2-0.1-0.7-0.1-0.8c-0.1,0.5-0.4,0.2-0.4-0.4c-0.2,1.5-0.6-0.6-0.7,0.7
			l-0.2-0.7c0,0.3-0.1,1.1-0.2,1.2c-0.1-0.4-0.1-0.9-0.1-1.3l-0.1,1.2c-0.8-1.4-1.8-0.5-2.6-1.6c-0.4,0.3-0.9,0.8-1.3,0.6l0-0.2
			l-0.4-0.3l0.3,0.6c-0.1,0.1-0.2,0.4-0.3,0.4c-0.5-0.5-1.1-1.2-1.7-0.5c-0.4,1.4-0.2-1.3-0.6-0.2c0-0.1,0-0.3,0.1-0.5
			c-0.4,0.5-0.6,0.7-1,1.6c0-1.4-0.3,0-0.2-0.7l0,0.6c0-0.2-0.1-0.3-0.2-0.4c0.1-0.7,0.1-1.5-0.2-2.2c-0.6-0.2-0.2,1-0.7,0.8
			c-1.1-2.4,1-2.2,0.2-4.5l0.8,0.5c-0.5-0.7-1.2-1.1-0.6-2.3c0.9-0.2,0.7,1,1.2,1.6c0-0.8-0.2-2.9-1-2.3c-0.3-1,0.5-1.4,0.8-1.9
			c-0.2,0-0.6,0.9-1,0.3c0.5-1.4,0.5-3.5,0.6-5.1c0.2,0,0.6-0.1,0.7,0c-0.7-0.8-0.3-1,0.1-1.5c2.2-0.3,4.5,0.3,6.6-0.2
			c-0.4,0.1-0.4-1.6,0-1.2c1,2.7,1.3-0.6,2.3,1.3c1.4-1,2.8,1.3,4-0.9l0.1,0.8c0.2,0.3,0.2-0.2,0.4-0.3l0,0.2
			c0.5,0.3,1.1-0.6,1.4-0.2l0-0.9c0.3-0.1,0.2,0.7,0.5,0.1l0,0.4l0.3-0.9c0.1,1.6,0.8,0.1,1.1,0.8c0.4-0.3,1-1,1.6-0.7
			c0.2,0.8,0.9,0.7,1.3,1.1c0.9-0.3,2.1-0.6,3.3-0.3l-0.1-1l0.3-0.1c0,0.2,0,0.3,0,0.4c0.3,1.1,0.7-0.4,0.9,0.3
			c-0.2-0.9-0.2-0.1-0.4-0.1c-0.3-0.5-0.1-1.5,0.3-1v0.2l0.2-0.5c0.1,0.8,0.3,1.1,0.3,1.9c1-0.2,1.6-1.6,2.6-1.3
			c-0.1,0.9,0.7-0.3,0.6,1.3c0.6-0.6-0.1-1.2,0.1-2.3c0.2,0,0.3-0.4,0.4,0.2c-0.1,0.4,0.2,0.9,0,1.1l0.4-0.1c0,0.1,0,0.3-0.1,0.4
			c0.8-0.9,1.5,1,2.2,0c0-0.6-0.3-0.1-0.3-0.7c0.7-1.1,0.7,1,1.4,0.2l-0.1,0.8c0.2-0.5,0.3-1.2,0.7-0.6c0.1,0.9-0.3,0.8-0.5,1.2
			c0.3,0,0.9-0.2,0.7-1c0.3-0.3,0.4,0.5,0.6,0.7c0-0.2-0.3-0.6-0.1-1c0.4,0.5,1.1,0.5,1.6,0.5c0,0.2,0,0.6,0,0.7
			c0.4-1.2,0.4,0.8,0.9,0.6c1.5-0.4,3.4-1.6,4.9-1.3c0.3-1.2,0.8-1.2,1.2-1.5l0.1,1.6l0.4-0.5c0.2,0.5-0.3,0.3,0,0.9l0.1-1
			c0,0.6,1,0.3,0.4,1.5l1.5,0c0.3,0,0.2-1.3,0.6-0.9c0.1,0.5-0.1,0.3-0.1,0.9c1.1,1.2,1.3-3.1,2.3-2.4l-0.1,0.2
			c0.2-0.4,0.5-0.4,0.5-0.6c-0.2-1.6-0.2,0.9-0.5-0.1c0-1.3,0.4-0.7,0.4-1.7c0.2,0.5,0.4-0.3,0.6-0.4c0.4,0.8,0.9,0.2,1.2,1.3
			c0.2-0.4,0.4-1.7,0.7-1.8c0.3,1,0,1,0.3,1.4l0-0.8c0.3,0.1,0.3,0.3,0.3,0.7c0.3,0,0.3-1.1,0.7-0.6l-0.2,0.8
			c0.3-0.3,0.4-0.2,0.8-0.1c0,0.4-0.2,0.4-0.3,0.3c0.2,1.1,0.4-0.5,0.5-0.4c0-0.3-0.3-0.5-0.2-1.3c0.2,0.1,0.4-1.1,0.6-0.1l-0.2,0.8
			c0.4-0.6,0.2-1,0.7-0.7c0,0.1,0,0.2,0,0.4c0.3-1,0.7-0.1,1.2,0l-0.1,0.2c0.2-0.3,0.3-1,0.4-0.9c-0.3-0.4-0.2-0.7-0.2-1.4
			c0.4,1.3,0.5-1.5,1.1-0.7c0,0.4-0.1,1-0.3,0.5c-0.2,1.3-0.2,2.4-0.6,3.1c0.2-0.3,0.5-0.5,0.4,0.1l0.1-1.2c0.1,0,0.2,0,0.3,0
			c0-0.8-0.3-1.3,0-1.8c0.3-0.4,0.2,1.3,0.2,0.7c0.5-0.5,0.2-1.3,0.7-0.9c0,0.1-0.1,0.3-0.2,0.2c0.3,0.5,0.8-0.2,0.9,1.3
			c0,0.3,0,0.8-0.2,0.7v-0.2c-0.4,1.1,0.3-0.3,0.2,1c0-0.8,0.4-0.6,0.7-0.5l-0.1-0.9c0.7-2.7,0,1.8,0.7,1.4c0.4-0.6-0.2-0.2,0.1-0.9
			c0.3,0.2,0.4,1,0.8,0.6c0.1,0.4,0.4,0.8,0.4,1.8c0.3-0.4,0.8,0.5,0.9-0.5c-0.5-0.8-0.4,1.1-1-0.3l0.1-1c0.4,0,0.8-0.4,1.1-0.1
			c0-0.2-0.1-0.4,0-0.7c0.5-0.4,0.7-1.4,1.2-1.1c0.1,0.9-0.2,0.8-0.4,0.8c0.3,0.7,0.3,0.1,0.8,0.3c0,0.8-0.3,0-0.4,0.7l0.6-0.2
			c0,0,0,0.1,0,0.2c0.1-1.3,0.4,0.1,0.8-0.3c0.8,0,0.9-1.8,1.4-2.8c0.1,0.4,0.2,0.7,0.1,1c-0.2-0.6-0.2-0.1-0.2,0.2
			c0.3-0.1,0.6,1.3,0.5,1.8c0.4-0.4-0.2-0.7,0.1-1.1l0.6,0.1c-0.1-0.7-0.3-0.8,0-1.3c0.3-0.2,0.4,0,0.7,0c0,0.3,0.1,1-0.1,1
			c0.2,0.3,0.4,0.3,0.5-0.4c-0.4-0.6,0.6-0.6,0.3-1.6l0.4,0.6c-0.1,0-0.1,0.4-0.2,0.3c0.1,1,0.3-0.3,0.4-0.4
			c0.1,0.2,0.5,0.3,0.5,0.7c0.1-0.3,0.4-0.1,0.5,0.5c0.2-0.2,0-0.7,0.1-1l0.6,0.1c0,0.6,0.1,2.1,0,2.4c0.2-0.5,0.1-1.7,0.4-1.6
			c-0.2,1.1,0.5,0.8,0.2,2.2c0.2,0.8,0.8,0.8,1.1,0.5c0.2-0.9-0.3-0.5-0.3-1.4c0.9-0.3,0.9-2.8,1.6-2.4l-0.2-0.2
			c0.4-0.5,0.4-0.4,0.6-1.1c-0.1,1.1,0.4,3,1.1,2.7c0-0.6-0.4-1.1-0.3-1.9l0.4-0.2c0,0.1,0,0.3-0.1,0.4c0.4-0.4,0.7,1.4,0.8,0.1
			l0.4,1.6l-0.2-0.7c0-0.5,0.5-0.7,0.6-0.9c0.4-0.6,0.6-0.1,0.8,0.6c-0.1-0.5-0.3-1.5,0.1-1.7c0,1.8,0.7,0.7,0.7,1.6
			c0.1,0,0.4,0.5,0.4-0.2l0,1.1c0-1.6,0.5-1.5,0.9-1.8c-0.1,2.1,0.4-0.2,0.6,1.8c0.1-1.4,0.7-0.6,0.8-1.8c0.3-0.1,0.3,1.3,0.3,1.7
			l0.1-0.5c0.1,0.7,0.7,0.8,1.1,1.2l0.3-1.3l0.1,0.6c0-0.3,0.3-0.5,0.1-1l0.2,0.1c0-1.4,0.2-0.4,0.6-1c0.1,0.2,0.1,0.6,0,0.7
			c0.2,0,0.1,0.7,0.2,1.2c-0.1-0.4,0.6-2.5,0.1-3.1c0-0.6,0.2-1,0.4-0.7l0.1,1.2l0.2-1.3c0.3-0.2,0.4,0.6,0.6,0.8
			c-0.2,0.1-0.5,2.4,0.1,2.4c-0.3,0.2-0.4,0.9-0.6,1.1c0.1,0,0.2,0.2,0,0.7c0.4-0.4,0.1-0.8,0.6-0.9c0,1.1,0.1,1.5,0.5,1.9l-0.3-0.8
			c0-0.1,0-0.2,0-0.3c-0.1-0.1-0.1-0.3-0.2-0.7c0.1,0,0.5-1.4,0.6-0.7c-0.4-1.7,0.8-1.3,0.5-2.4c0-0.3,0.4-0.4,0.4,0.2
			c-0.4,0.8,0.3,1.3,0.2,2.1c0.1-0.3-0.3-0.8-0.1-1.3c0.2-0.1,0.4,0.6,0.5,1l-0.1,0.2l0.3,0.5c0-0.6-0.3-0.9,0-1.2
			c0.1,0.2,0.4,0,0.4,0.4c-0.1,0.8,0,1.8-0.3,2c0.2-0.1,0.9-0.2,0.6-1.3l0.3,0c-0.2-0.5-0.6-1.3-0.1-1.5v0.2l0.4-0.8l0.2,0.6
			c0-0.3,0-0.5,0.2-0.5c0,0.3,0.2,0.5,0.2,0.9c0.4-0.1,0.4-0.6,0.4-0.9c0.2-0.1,0.3,0.2,0.2,0.8c0.3,0.1,0.8,0,1,0.6
			c0.4-0.5-0.1-0.2,0.1-1c0.4,2,1.3,0.8,2,0.5c-0.2-1.7,0.2-0.2,0.3-1.7c-0.1,0.5,0.6,1.3,0.1,1.8l0.3-0.2c0.2,0.9-0.6,0.7-0.2,2
			c0.4-0.1,0.6-1.9,1.1-1.3c-0.1,1.2,0.3-0.4,0.2,0.9c-0.1,0.4-0.2,0.3-0.3,0.4l0.1,0.2c0.9,0.3,0.2-1.4,0.7-2.3
			c0.5-0.2,0.4,0.9,0.5,1.5c0.1,0.2,0.2,0.1,0.3-0.1c-0.2,0.1-0.4-1-0.3-1.7C277.1,190,277.7,188.7,277.8,188.1z M181.1,175.9
			c-0.1,0.1-0.2,0.2-0.2,0.5c-0.2,0-0.4-0.1-0.5-0.4L181.1,175.9z"/>
	</g>
	<g>
		<path class="st0" d="M244.6,192.5l-0.2-0.1c0,0.2,0,0.4-0.1,0.7L244.6,192.5z"/>
	</g>
	<g>
		<path class="st0" d="M232.4,192.9c0,0.2,0,0.4,0.1,0.7C232.7,193.4,232.5,193.2,232.4,192.9z"/>
	</g>
	<g>
		<path class="st0" d="M264.6,189.4c0,0-0.1,0-0.2,0.1C264.5,189.6,264.6,189.5,264.6,189.4z"/>
	</g>
	<g>
		<path class="st0" d="M246.3,190.7c0.1,0,0.1-0.1,0.2-0.3C246.4,190.5,246.3,190.6,246.3,190.7z"/>
	</g>
	<g>
		<path class="st0" d="M264.3,189.7l-0.2-0.1c0,0.1,0,0.1,0,0.2L264.3,189.7z"/>
	</g>
	<g>
		<path class="st0" d="M265.7,190.9c-0.1,0-0.2,0-0.3-0.1C265.6,191,265.7,191,265.7,190.9z"/>
	</g>
	<g>
		<path class="st0" d="M255.8,189L255.8,189C255.6,189.4,255.7,189.2,255.8,189z"/>
	</g>
	<g>
		<polygon class="st0" points="263.3,191.2 263.3,191.2 263.2,191.5 		"/>
	</g>
	<g>
		<path class="st0" d="M266.7,191.2c0,0-0.1,0.1-0.1,0.2c0,0,0.1,0.1,0.1,0.1C266.7,191.4,266.7,191.3,266.7,191.2z"/>
	</g>
	<g>
		<path class="st0" d="M259.1,189.6c-0.1,0-0.1,0.2-0.1,0.7C259,190,259.1,189.8,259.1,189.6z"/>
	</g>
	<g>
		<path class="st0" d="M222.7,220.1L222.7,220.1c0,0.1,0.1,0.1,0.2,0.1L222.7,220.1z"/>
	</g>
	<g>
		<path class="st0" d="M210.3,216.6c0,0.1-0.1,0.2-0.1,0.2C210.3,216.8,210.3,216.8,210.3,216.6z"/>
	</g>
	<g>
		<path class="st0" d="M224.5,226.1c0,0.2,0,0.4,0.1,0.4L224.5,226.1z"/>
	</g>
	<g>
		<path class="st0" d="M226.3,222.9c0,0,0,0.1-0.1,0.2C226.3,223.1,226.4,223,226.3,222.9z"/>
	</g>
	<g>
		<path class="st0" d="M223,227.8c-0.1,0.4-0.3-0.1-0.3,0.3C222.8,228.1,223,228.4,223,227.8z"/>
	</g>
	<g>
		<path class="st0" d="M183.6,213.9L183.6,213.9C183.6,213.9,183.6,213.9,183.6,213.9L183.6,213.9z"/>
	</g>
	<g>
		<path class="st0" d="M183,213.2l0.1-0.1C183.1,213,183,213.1,183,213.2z"/>
	</g>
	<g>
		<path class="st0" d="M210.7,216.9C210.7,216.9,210.7,216.9,210.7,216.9C210.8,216.8,210.8,216.8,210.7,216.9z"/>
	</g>
	<g>
		<polygon class="st0" points="206.4,228.2 206.4,228.2 206.4,228.3 		"/>
	</g>
	<g>
		<path class="st0" d="M206.6,227.7c-0.1-0.1-0.2,0.2-0.2,0.5C206.4,228.2,206.5,228.2,206.6,227.7z"/>
	</g>
	<g>
		<path class="st0" d="M210.3,229L210.3,229L210.3,229z"/>
	</g>
	<g>
		<polygon class="st0" points="203.7,229.2 203.7,229.1 203.7,229.2 		"/>
	</g>
	<g>
		<path class="st0" d="M223.4,226.6c0,0.1,0.1,0.3,0,0.4C223.4,226.9,223.4,226.7,223.4,226.6z"/>
	</g>
	<g>
		<path class="st0" d="M210.4,229.1l-0.1-0.1c0,0.1,0,0.3-0.1,0.5L210.4,229.1z"/>
	</g>
	<g>
		<path class="st0" d="M203.7,229.2c0,0.1,0,0.3,0,0.5C203.8,229.5,203.7,229.3,203.7,229.2z"/>
	</g>
	<g>
		<path class="st0" d="M221.3,227l-0.1-0.1c0,0,0,0.1,0,0.1L221.3,227z"/>
	</g>
	<g>
		<path class="st0" d="M222.2,227.9c0,0-0.1,0-0.2-0.1C222.1,228,222.1,228,222.2,227.9z"/>
	</g>
	<g>
		<path class="st0" d="M216.6,226.5L216.6,226.5C216.5,226.8,216.6,226.7,216.6,226.5z"/>
	</g>
	<g>
		<polygon class="st0" points="220.8,228.2 220.8,228.2 220.8,228.3 		"/>
	</g>
	<g>
		<path class="st0" d="M222.7,228.1c0,0,0,0-0.1,0.1l0.1,0.1C222.7,228.2,222.7,228.2,222.7,228.1z"/>
	</g>
	<g>
		<path class="st0" d="M218.4,227.6c0-0.2,0-0.4,0-0.6C218.4,227,218.4,227.1,218.4,227.6z"/>
	</g>
	<g>
		<path class="st0" d="M211.4,293.9L211.4,293.9c-0.1,0-0.1,0-0.2,0L211.4,293.9z"/>
	</g>
	<g>
		<path class="st0" d="M215.9,291.9c-0.2,0-0.2,0-0.3,0C215.6,291.9,215.7,291.9,215.9,291.9z"/>
	</g>
	<g>
		<path class="st0" d="M203.4,295.3c-0.2,0-0.5,0.1-0.6,0.1L203.4,295.3z"/>
	</g>
	<g>
		<path class="st0" d="M207.6,295c0,0-0.2,0-0.3,0C207.3,295.1,207.3,295.1,207.6,295z"/>
	</g>
	<g>
		<path class="st0" d="M215.7,286.7c0,0-0.4-0.1-0.7-0.3L215.7,286.7z"/>
	</g>
	<g>
		<path class="st0" d="M201.2,295.3c-0.6,0.1,0.1-0.1-0.5,0C200.9,295.3,200.4,295.4,201.2,295.3z"/>
	</g>
	<g>
		<path class="st0" d="M210.7,285.1c0.1,0,0.2,0.1,0.3,0.1c-0.1,0-0.1,0-0.1,0L210.7,285.1z"/>
	</g>
	<g>
		<path class="st0" d="M218.6,289.4L218.6,289.4C218.7,289.5,218.7,289.5,218.6,289.4L218.6,289.4z"/>
	</g>
	<g>
		<path class="st0" d="M219.6,289.6c0.1,0,0.1,0,0.2,0C219.8,289.6,219.7,289.6,219.6,289.6z"/>
	</g>
	<g>
		<path class="st0" d="M215.6,292c0,0-0.1,0-0.1,0C215.6,292,215.7,292,215.6,292z"/>
	</g>
	<g>
		<polygon class="st0" points="200.3,291.7 200.3,291.7 200.2,291.7 		"/>
	</g>
	<g>
		<path class="st0" d="M200.3,291.7c0,0,0.1,0,0.7,0C201.1,291.7,200.7,291.7,200.3,291.7z"/>
	</g>
	<g>
		<path class="st0" d="M199.4,292.6L199.4,292.6L199.4,292.6z"/>
	</g>
	<g>
		<polygon class="st0" points="198.9,291.1 198.9,291.1 198.9,291.1 		"/>
	</g>
	<g>
		<path class="st0" d="M215.7,286.7c-0.7-0.2-1.2-0.4-2.1-0.7c-0.3-0.1,1,0.3,0.3,0.1c-0.5-0.2-1.9-0.6-2.8-0.9l-0.2-0.1
			c-0.5-0.2,0.6,0.2-0.4-0.1l1.4,0.4c-0.2-0.1-0.5-0.1-1-0.3c0.5,0.2,2.4,0.8,1.6,0.6l-0.1,0c0,0-0.9-0.3-1.1-0.3h0l-0.7-0.2
			c0.5,0.1-0.6-0.3-0.6-0.2c-0.4-0.1,0.3,0.1,0.5,0.2c0.1,0-0.7-0.2-1.1-0.3l0,0c-0.6-0.2,0,0-0.6-0.2l0.7,0.3
			c-1.6-0.5,0.8,0.3-0.8-0.2c-0.4-0.1-0.5-0.2-1.1-0.3l0.1,0.1c-0.2-0.1-0.5-0.2-0.4-0.1c-0.5-0.1,0.4,0.1,0.4,0.1
			c-0.4-0.1,0,0.1-1.1-0.3c-0.7-0.2,1.4,0.4,0.7,0.3c-0.7-0.2-0.1-0.1-0.8-0.3l0.2,0.1c-0.3-0.1-1.1-0.3-0.9-0.3
			c-0.9-0.1-4.4-1-3.6-0.6c-0.8-0.2-0.5-0.2-1-0.3c1,0.4-1.8-0.3-1.7-0.2l0.6,0.2c-2-0.4-0.9,0.1-1.8,0.1l0.5,0.1
			c0.6,0.2,0.7,0.2,1,0.3c-0.3-0.1-1.4-0.4-1.1-0.2c0.2,0,0.5,0.1,0.8,0.2c-1.7-0.3-1.4,0.1-2.3,0.2c0.4,0.5-0.9,0.6-0.6,1
			c0-0.1,1.6,0.3,1.2,0.2c-2.8-0.4,0.4,0.3-1.5,0c0.8,0.4-1.6,0.1,0.5,0.7l-0.8-0.1c-0.4,0,0.2,0.1,0.2,0.1l-0.2,0
			c-0.3,0,0.5,0.2,0.1,0.2l0.9,0.1c0.1,0-0.7-0.1-0.2,0l-0.4-0.1l0.8,0.2c-1.5-0.2-0.1,0.1-0.8,0c0.3,0.1,0.9,0.3,0.6,0.3
			c-0.8-0.1-0.8,0-1.2,0c0.2,0.2,0.4,0.4,0.1,0.5l1,0.1l0.1,0c-0.2,0-0.3,0-0.4-0.1c-1.1-0.1,0.3,0.1-0.4,0.1c0.9,0.1,0.1,0,0.2,0
			c0.5,0,1.5,0.2,0.9,0.2l-0.2,0l0.5,0.1c-0.8-0.1-1.2-0.1-1.9-0.2c0.2,0.2,1.5,0.4,1.1,0.5c-0.9-0.1,0.2,0.1-1.3-0.1
			c0.6,0.1,1.2,0.1,2.3,0.3c0,0,0.4,0.1-0.2,0c-0.4,0-0.9-0.1-1.1-0.1l0.1,0.1c-0.1,0-0.3,0-0.4-0.1c0.9,0.2-1,0.1-0.1,0.3
			c0.6,0.1,0.2,0,0.7,0c1.1,0.2-1,0-0.2,0.2l-0.8-0.1c0.5,0.1,1.2,0.1,0.6,0.1c-0.9-0.1-0.7-0.1-1.1-0.2c0,0,0.2,0.1,1,0.2
			c0.3,0.1-0.5,0-0.8,0c0.2,0,0.6,0,1,0.1c-0.5,0-0.5,0.1-0.6,0.2c-0.2,0-0.6,0-0.7,0c1.2,0.1-0.8,0-0.6,0.1
			c0.3,0.2,1.5,0.6,1.1,0.8c1.2,0.1,1.2,0.2,1.5,0.2l-1.6-0.1l0.5,0.1c-0.5,0-0.3-0.1-0.9,0l1,0.1c-0.6,0-0.4,0.1-1.5,0l0,0.2
			c0,0,1.3,0.1,0.9,0.1c-0.5,0-0.3,0-0.9,0c-1.2,0.1,3.1,0.3,2.3,0.4l-0.2,0c0.4,0,0.4,0.1,0.6,0.1c1.6,0-0.9,0,0.1-0.1
			c1.3,0.1,0.7,0,1.7,0.1c-0.5,0,0.3,0.1,0.4,0.1c-0.8,0-0.2,0.1-1.3,0.1c0.4,0,1.7,0.1,1.8,0.1c-1,0-1,0-1.4,0l0.8,0
			c-0.1,0-0.3,0-0.7,0c0,0,1.1,0,0.6,0.1l-0.8,0c0.3,0,0.2,0.1,0.1,0.1c-0.4,0-0.4,0-0.3,0c-1.2,0,0.5,0,0.4,0.1c0.3,0,0.5,0,1.3,0
			c-0.1,0,1.1,0.1,0.1,0.1l-0.8,0c0.6,0.1,1,0,0.7,0.1c-0.1,0-0.2,0-0.4,0c1,0,0.1,0.1,0,0.1l-0.2,0c0.3,0,1,0,0.9,0
			c0.4,0,0.7,0,1.4,0c-1.3,0,1.5,0,0.7,0.1c-0.4,0-1,0-0.5,0c-1.3,0-2.4,0-3.1,0c0.3,0,0.5,0.1-0.1,0h1.2c0,0,0,0,0,0
			c0.8,0,1.3,0,1.8,0c0.4,0-1.3,0-0.7,0c0.5,0,1.3,0,0.9,0.1c-0.1,0-0.3,0-0.2,0c-0.5,0,0.2,0.1-1.3,0.1c-0.3,0-0.8,0-0.7,0h0.2
			c-1.1,0,0.3,0-1,0c0.8,0,0.6,0,0.5,0.1l0.9,0c2.7,0-1.8,0-1.4,0.1c0.6,0,0.2,0,0.9,0c-0.2,0-1,0.1-0.6,0.1c-0.4,0-0.8,0-1.8,0.1
			c0.4,0-0.5,0.1,0.5,0.1c0.8-0.1-1.1,0,0.3-0.1l1,0c0,0,0.4,0.1,0.1,0.1c0.2,0,0.4,0,0.7,0c0.4,0,1.4,0,1.1,0.1c-0.9,0-0.8,0-0.8,0
			c-0.7,0.1,0,0-0.3,0.1c-0.8,0,0,0-0.7,0l0.2,0.1c0,0-0.1,0-0.2,0c1.3,0-0.1,0.1,0.3,0.1c0,0.1,1.8,0,2.8,0c-0.4,0-0.7,0-1,0.1
			c0.6,0,0.1,0-0.2,0c0.1,0-1.3,0.1-1.8,0.1c0.4,0,0.7,0,1.1,0l-0.1,0.1c0.7,0,0.8-0.1,1.3-0.1c0.2,0,0,0,0,0.1c-0.3,0-1,0.1-1,0
			c-0.3,0-0.3,0.1,0.4,0c0.6-0.1,0.6,0,1.6,0l-0.6,0.1c0,0-0.4,0-0.3,0c-1,0.1,0.3,0,0.4,0c-0.2,0-0.3,0.1-0.7,0.1
			c0.3,0,0.1,0-0.5,0.1c0.2,0,0.7,0,1-0.1l-0.1,0.1c-0.6,0-2.1,0.1-2.4,0.2c0.5,0,1.7-0.1,1.6-0.1c-1.1,0-0.8,0.1-2.1,0.2
			c-0.8,0.1-0.8,0.1-0.5,0.2c0.9,0,0.5-0.1,1.4-0.1c0.3,0.1,2.8-0.1,2.4,0l0.2,0c0.5,0,0.4,0,1.1,0c-1.1,0.1-3,0.3-2.7,0.4
			c0.6-0.1,1.1-0.1,1.9-0.2l0.2,0c-0.1,0-0.3,0-0.4,0c0.4,0-1.4,0.2-0.1,0.1l-1.6,0.2l0.7-0.1c0.5,0,0.7,0,0.9,0
			c0.6,0,0.1,0-0.6,0.1c0.5,0,1.5-0.2,1.7-0.1c-1.8,0.2-0.7,0.1-1.6,0.2c0,0-0.5,0.1,0.2,0l-1.1,0.1c1.6-0.1,1.5-0.1,1.8-0.1
			c-2.1,0.2,0.2,0-1.7,0.3c1.4-0.1,0.6,0,1.8-0.1c0.1,0-1.3,0.2-1.7,0.2l0.5,0c-0.7,0.1-0.8,0.2-1.2,0.3l1.3-0.1l-0.6,0.1
			c0.3,0,0.5,0,1-0.1l-0.1,0c1.4-0.2,0.4,0,1,0c-0.2,0-0.6,0.1-0.7,0.1c0,0-0.7,0.1-1.2,0.2c0.4-0.1,2.5-0.2,3.1-0.4
			c0.6-0.1,1-0.1,0.7,0l-1.2,0.2l1.3-0.1c0.2,0-0.6,0.1-0.7,0.2c-0.1,0-2.4,0.2-2.4,0.3c-0.2,0-0.8,0.1-1.1,0.1c0,0-0.2,0-0.7,0.1
			c0.4,0,0.8-0.1,0.9,0c-1.1,0.1-1.5,0.2-1.8,0.3l0.8-0.1c0.1,0,0.2,0,0.3,0c0.1,0,0.3,0,0.7-0.1c0,0,1.4-0.1,0.7,0
			c1.7-0.3,1.3-0.1,2.4-0.3c0.3,0,0.4,0-0.2,0.1c-0.8,0.1-1.3,0.2-2,0.3c0.3,0,0.8-0.1,1.2-0.2c0.1,0-0.6,0.1-0.9,0.2l-0.2,0
			l-0.5,0.1c0.6-0.1,0.9-0.2,1.2-0.2c-0.2,0,0.1,0-0.4,0.1c-0.8,0.1-1.8,0.2-2,0.2c0.1,0,0.2,0.1,1.3-0.1l0,0
			c0.5-0.1,1.3-0.3,1.5-0.2l-0.2,0l0.8-0.1l-0.6,0.1c0.3,0,0.5-0.1,0.5,0c-0.3,0-0.5,0.1-0.9,0.1c0.1,0,0.6,0,0.9-0.1
			c0.1,0-0.1,0.1-0.8,0.1c-0.1,0.1,0,0.1-0.6,0.2c0.5,0,0.2,0,1-0.1c-1.9,0.3-0.7,0.3-0.5,0.3c1.7-0.3,0.2,0,1.7-0.2
			c-0.5,0.1-1.3,0.3-1.8,0.3l0.2,0c-0.9,0.2-0.7,0-2,0.3c0.1,0,1.9-0.2,1.3-0.1c-1.2,0.2,0.4,0-0.9,0.2c-0.4,0.1-0.3,0-0.4,0l-0.2,0
			c-0.3,0.2,1.4-0.2,2.2-0.3c0.2,0-0.9,0.2-1.5,0.3c-0.2,0-0.1,0,0.1,0c-0.1,0,1-0.2,1.7-0.3c-1.4,0.3-0.1,0.1,0.4,0
			c1.4-0.3,0.1-0.1,1.6-0.4c-0.4,0.1-1.6,0.3-1.1,0.1c0.6-0.1,0.7-0.1,0.9-0.2c-0.7,0.1-0.3,0-0.6,0c0.6-0.1,1.6-0.2,1.9-0.3
			l-1.6,0.3c0.2-0.1,1.2-0.2,0.8-0.2c0.9-0.1,1.3-0.2,1.6-0.2c1.4-0.3-0.8,0-1.4,0.1c0.1,0,0.3,0,0.4-0.1c-0.4,0.1-0.4,0-0.5,0
			c0.4-0.1,0.8-0.1,1.2-0.2l0,0c0,0,0.1,0,0.1,0c-0.2,0-0.4,0,0,0c0.5-0.1,1.1-0.1,1.5-0.2l-1.2,0.1c0.5-0.1,0.9-0.2,1.3-0.2l-0.2,0
			l1.1-0.2c-0.2,0-0.4,0-0.6,0.1c0.3-0.1-2,0.2,0.2-0.1c-0.9,0.1-0.6,0-1.1,0c1-0.1,1.3-0.2,1.8-0.3c0.5-0.1-0.7,0.1-0.9,0.1
			c0.5-0.1,1.6-0.2,2-0.3l-0.5,0l0.2,0l-0.6,0.1c0.6-0.1,1.1-0.2,1.3-0.2l-1,0.1l0.6-0.1c-0.5,0.1-0.7,0.1-0.7,0.1l0.2,0h-0.2
			c0.6-0.1,0.2,0,0.9-0.1c0,0,0,0-0.1,0l-0.7,0.1c-0.6,0,1-0.1,1.1-0.2l-0.8,0.1c1.3-0.2-0.8,0,0.1-0.1c0.2,0,0.7-0.1,0.9-0.1
			c-0.3,0-0.1-0.1-1,0c1.1-0.2,1.5-0.2,2-0.3c-0.1,0-0.2,0-0.8,0.1c0.4-0.1-0.2,0,0.6-0.1c-0.7,0.1,0.1,0-0.4,0l0.3,0l-0.8,0.1
			c1.7-0.2-1,0,0.5-0.2l0.2,0l-0.3,0c0.3,0,0.6,0,1-0.1l0.1-0.1l-0.6,0.1c-0.1,0-0.8,0-0.4,0c1.2-0.1,0,0,0.9-0.1l0.3,0
			c-0.1,0-0.1,0-0.9,0.1c-0.3,0,1.5-0.2,0.7-0.1l0,0c-0.5,0-1.1,0.1-1.1,0.1c0.1,0,0.5,0,0.6,0c-0.3,0,0.1-0.1-0.2,0
			c0.2,0,0.8-0.1,1-0.1c-0.7,0,0.1,0-0.5,0l0.4,0l-0.5,0l0.9-0.1l-0.6,0c-0.1,0-0.4,0-0.1,0l0.7,0c-0.4,0,1.1-0.1,0.2-0.1
			c0.1,0,0.3,0,0.4,0c-1,0,1.2-0.1-0.1-0.1c0.2,0,0.5,0,0.7,0l-0.4,0l0.9-0.1l-1.3,0.1l0.9-0.1l-0.4,0c1.7-0.1,0.4-0.1,1.7-0.2
			l-1.1,0.1c-2.3,0.1,1.3-0.2,0.2-0.2l0.9,0l-1,0c0.7,0,0.8,0,1.2-0.1c-0.5,0-1.3,0-1.6,0c0.6,0,0.7,0,1,0c-0.4,0-0.9,0-0.4-0.1
			c-0.1,0-0.3,0-0.3,0c-0.4,0,0,0,0-0.1c0.4,0,0.5,0,0.6,0c0,0,0.3,0-0.1,0l0.8,0c0.2,0-0.5,0,0.4-0.1c-0.3,0-1,0-1,0
			c1.4,0-0.6,0,0.2-0.1c0.3,0,0.4,0,0.4,0c0.4,0-0.3,0-0.7,0l0.6,0l-0.8,0c1.4,0-0.2,0,0.8-0.1c0,0-0.6,0-0.8,0c0.6,0-0.3,0,0.6,0
			h0.1l-0.1,0h0.9c-0.2,0-1.1,0-1.7,0c0.5,0,0.1,0,0.9,0h0.2c-0.3,0,2.4-0.1,0.9-0.1c0.1,0,0.3,0,0.3,0l0.1,0h0.7l-1,0h0.4
			c0.2,0,0-0.1-0.2-0.1l0.2,0c-0.7,0,0.4,0-0.1-0.1c0.1,0,0.2,0,0.2,0l0,0l0.4,0c-1,0,1.3,0,0.4,0c-0.4,0-0.9,0-1.5,0c0,0,0.6,0,1,0
			c0,0-0.7,0-0.3,0l0.4,0c-0.1,0-0.4,0-0.5,0l0.2,0c-0.9,0,1.3,0-0.6-0.1c0.4,0,0.1,0,1,0c-0.6-0.1-0.8-0.1-1.2-0.1
			c1.5,0-0.1,0,0.8,0l-0.8,0c-0.1,0,1.8,0,1.5-0.1l0.8,0l-0.9,0c0.4,0,0.7-0.1,0.7-0.1c-0.4,0-1.4-0.1-1.1-0.1l0.1,0
			c-0.4-0.1-0.8-0.1-0.3-0.1c0.3,0,0.6,0,0.8,0.1c-0.9-0.1,0,0,0,0l-0.6,0c-0.7-0.1,0,0,0.6,0l-0.8-0.1c0.1,0,0.2,0,0.3,0l-0.4,0
			l1,0.1c-0.2,0-0.5,0-1.5-0.2c0.3,0,0.6,0,0.8,0.1l0.3,0l-0.4,0c-0.8-0.1-1.3-0.1-0.9-0.1c0.6,0.1,1.1,0.1,1.7,0.2
			c-0.4,0-0.7-0.1-1.1-0.1c-0.5-0.1-0.8-0.1-0.4-0.1l0.3,0c-0.3,0,1.1,0.1,1,0.1c-0.6-0.1,0,0-1.4-0.2c-0.3,0,0.9,0.1,1,0.1
			c-0.6-0.1-0.2-0.1,0.5,0c-2-0.2,0.7,0-0.9-0.2l0.9,0.1c-0.4-0.1-1.4-0.2-1.6-0.2c0.5,0,1.3,0.1,1.7,0.2l-1.6-0.2
			c1.8,0.1,0.6-0.1,2.1,0c-0.3-0.1-1.1-0.2-0.9-0.2l0.2,0l0.5,0l-0.8-0.1c-0.2,0-0.5-0.1-0.5-0.1c0.7,0.1,1.5,0.1,0.7,0
			c-1.9-0.3,1.7,0.3,0.3,0c0.2,0,0.4,0.1,0.6,0.1c-0.6-0.1-0.9-0.2-2-0.4c1.9,0.3,0,0,0.9,0.1l-0.8-0.1c0.5,0.1,0.6,0.1,1.2,0.2
			l-0.9-0.2l0.8,0.1c0.1,0-0.6-0.2,1,0.1c-1.2-0.3-0.8-0.3-0.5-0.3c-0.6-0.1-0.7-0.2-0.7-0.2l0.9,0.2c-0.3-0.1-1.4-0.3-0.8-0.2
			c0.1,0,0.2,0,0.2,0c-0.2-0.1,0.3,0-0.5-0.2c0,0,0.5,0.1,1.4,0.3c-1.5-0.3,0.2,0,0.2,0C219.9,288.9,223.7,289.5,215.7,286.7z"/>
	</g>
	<g>
		<path class="st0" d="M202,296.4c-0.1,0-0.1,0-0.2,0C201.9,296.4,201.9,296.4,202,296.4z"/>
	</g>
	<g>
		<path class="st0" d="M199.3,292.6l0.1,0c-0.2,0-0.4,0-0.7,0L199.3,292.6z"/>
	</g>
	<g>
		<path class="st0" d="M202.6,294.8c0,0,0,0-0.1,0C202.4,294.8,202.5,294.8,202.6,294.8z"/>
	</g>
	<g>
		<path class="st0" d="M201.1,292.8c0,0,0.1,0,0.3,0C201.3,292.8,201.2,292.8,201.1,292.8z"/>
	</g>
	<g>
		<path class="st0" d="M202.3,294.8L202.3,294.8C202.3,294.8,202.3,294.8,202.3,294.8L202.3,294.8z"/>
	</g>
	<g>
		<path class="st0" d="M201.1,295.1c0,0,0,0,0.1,0C201,295.1,201,295.1,201.1,295.1z"/>
	</g>
	<g>
		<path class="st0" d="M202.9,293.8L202.9,293.8C202.5,293.8,202.6,293.8,202.9,293.8z"/>
	</g>
	<g>
		<polygon class="st0" points="200.7,294.9 200.8,294.9 200.5,294.9 		"/>
	</g>
	<g>
		<path class="st0" d="M200.8,295.3c0,0-0.1,0-0.2,0l-0.1,0C200.6,295.3,200.7,295.3,200.8,295.3z"/>
	</g>
	<g>
		<path class="st0" d="M202.3,294.2c0,0-0.2,0-0.7,0.1C201.9,294.2,202.1,294.2,202.3,294.2z"/>
	</g>
</g>
</svg>
