<svg id="Camada_1" data-name="Camada 1" xmlns="http://www.w3.org/2000/svg" viewBox="0 0 42.52 42.52"><defs><style>.cls-1{fill:#fff;}</style></defs><title>icon</title><path class="cls-1" d="M37.18,26V6.75a1.49,1.49,0,0,0-1.49-1.49H6.83A1.49,1.49,0,0,0,5.34,6.75V26L3.12,33l0,.15v2.55a1.59,1.59,0,0,0,1.59,1.59H37.83a1.59,1.59,0,0,0,1.59-1.59V33.12ZM6.34,6.75a.49.49,0,0,1,.49-.49H35.69a.49.49,0,0,1,.49.49V25.56H6.34ZM6.21,26.56h30.1l2.11,6.63a.6.6,0,0,1-.59.52H26.2l-.53-3a1.15,1.15,0,0,0-1.13-.95H18a1.15,1.15,0,0,0-1.13.95l-.53,3H4.69a.6.6,0,0,1-.59-.52Zm19,7.15H17.33l.5-2.81a.17.17,0,0,1,.15-.13h6.56a.17.17,0,0,1,.15.13Zm12.64,2.55H4.69a.59.59,0,0,1-.59-.59V34.6a1.63,1.63,0,0,0,.59.11H37.83a1.63,1.63,0,0,0,.59-.11v1.07A.59.59,0,0,1,37.83,36.26Z"/><path class="cls-1" d="M34.75,17.1a.5.5,0,0,0-.5.5V23a.47.47,0,0,1-.46.46H8.73A.47.47,0,0,1,8.27,23V17.6a.5.5,0,0,0-.5-.5.5.5,0,0,0-.5.5V23a1.47,1.47,0,0,0,1.46,1.46H33.79A1.47,1.47,0,0,0,35.25,23V17.6A.5.5,0,0,0,34.75,17.1Z"/><path class="cls-1" d="M33.79,7.37H8.73A1.46,1.46,0,0,0,7.27,8.83v5.24a.51.51,0,0,0,.5.5.5.5,0,0,0,.5-.5V8.83a.46.46,0,0,1,.46-.46H33.79a.46.46,0,0,1,.46.46v5.24a.5.5,0,0,0,.5.5.51.51,0,0,0,.5-.5V8.83A1.46,1.46,0,0,0,33.79,7.37Z"/></svg>