<svg id="Camada_1" data-name="Camada 1" xmlns="http://www.w3.org/2000/svg" viewBox="0 0 42.52 42.52"><defs><style>.cls-1{fill:#fff;}</style></defs><title>icon</title><path class="cls-1" d="M32.56,37.06H10a4.51,4.51,0,0,1-4.5-4.5V10A4.51,4.51,0,0,1,10,5.46h22.6a4.51,4.51,0,0,1,4.5,4.5v22.6A4.51,4.51,0,0,1,32.56,37.06ZM10,6.46A3.5,3.5,0,0,0,6.46,10v22.6a3.5,3.5,0,0,0,3.5,3.5h22.6a3.5,3.5,0,0,0,3.5-3.5V10a3.5,3.5,0,0,0-3.5-3.5Z"/><path class="cls-1" d="M14.39,23.06v4.5H11.76V14.8h5a5.64,5.64,0,0,1,2.53.53A3.82,3.82,0,0,1,21,16.82a4.18,4.18,0,0,1,.58,2.2,3.65,3.65,0,0,1-1.28,3,5.36,5.36,0,0,1-3.55,1.08Zm0-2.13h2.35a2.28,2.28,0,0,0,1.59-.49,1.75,1.75,0,0,0,.55-1.4,2.12,2.12,0,0,0-.55-1.51,2.05,2.05,0,0,0-1.53-.6H14.39Z"/><path class="cls-1" d="M28.31,24.94a.81.81,0,0,0-.46-.73,5.19,5.19,0,0,0-1.48-.48Q23,23,23,20.86A2.59,2.59,0,0,1,24,18.75a4.17,4.17,0,0,1,2.73-.85,4.58,4.58,0,0,1,2.89.85A2.7,2.7,0,0,1,30.74,21H28.21a1.21,1.21,0,0,0-.35-.9,1.5,1.5,0,0,0-1.09-.35,1.46,1.46,0,0,0-1,.29.88.88,0,0,0-.35.73.78.78,0,0,0,.39.68,4.34,4.34,0,0,0,1.35.45,11.19,11.19,0,0,1,1.59.42,2.64,2.64,0,0,1,2,2.55,2.47,2.47,0,0,1-1.11,2.1,4.77,4.77,0,0,1-2.88.81,5,5,0,0,1-2.11-.43,3.51,3.51,0,0,1-1.45-1.16,2.74,2.74,0,0,1-.53-1.6h2.4a1.33,1.33,0,0,0,.5,1,2,2,0,0,0,1.25.36,1.81,1.81,0,0,0,1.1-.28A.86.86,0,0,0,28.31,24.94Z"/></svg>